<svg xmlns="http://www.w3.org/2000/svg" height="200" width="643"><g style="line-height:125%" font-weight="400" font-size="137.5" font-family="Product Sans" letter-spacing="0" word-spacing="0" opacity=".54"><path style="-inkscape-font-specification:'Product Sans'" d="M357.979 103.988q0 20.624-12.237 32.862-13.75 14.575-36.163 14.575-21.45 0-36.3-14.85-14.85-14.85-14.85-36.575t14.85-36.575q14.85-14.85 36.3-14.85 10.863 0 20.488 3.85t15.812 10.863l-9.075 9.075q-4.537-5.5-11.825-8.525-7.15-3.163-15.4-3.163-16.087 0-27.225 11.138-11 11.275-11 28.187t11 28.187q11.138 11.138 27.225 11.138 14.713 0 24.475-8.25 9.763-8.25 11.275-22.687h-35.75V96.563h47.713q.687 3.85.687 7.425zM373.349 149.225v-98.45h35.612q11.688 0 20.075 7.7 8.388 7.563 8.388 19.113 0 14.575-13.338 20.487v.55q7.563 2.475 12.1 8.663 4.538 6.05 4.538 13.887 0 12.1-8.8 20.075-8.525 7.975-21.038 7.975H373.35zm12.65-86.35v30.113h22.962q6.738 0 11.275-4.538 4.538-4.675 4.538-10.587 0-5.775-4.4-10.45-4.4-4.538-10.863-4.538H386zm0 41.938v32.312h25.437q6.875 0 11.688-4.813 4.675-4.812 4.675-11.412 0-6.462-4.813-11.275-4.812-4.812-12.1-4.812H386zM549.727 103.988q0 20.624-12.237 32.862-13.75 14.575-36.163 14.575-21.45 0-36.3-14.85-14.85-14.85-14.85-36.575t14.85-36.575q14.85-14.85 36.3-14.85 10.863 0 20.488 3.85t15.812 10.863l-9.075 9.075q-4.537-5.5-11.825-8.525-7.15-3.163-15.4-3.163-16.087 0-27.225 11.138-11 11.275-11 28.187t11 28.187q11.138 11.138 27.225 11.138 14.713 0 24.475-8.25 9.763-8.25 11.275-22.687h-35.75V96.563h47.713q.687 3.85.687 7.425z"/></g><path d="M122.81 140.233l.014.017c4.767 0 9.529-1.833 13.18-5.485l16.809 16.787c16.557-16.562 16.558-43.407 0-59.971l-16.804 16.798h-.006c7.266 7.283 7.293 19.093 0 26.386-3.675 3.663-8.377 5.454-13.192 5.468" fill="#dc4a3d"/><path d="M196.01 48.417c-16.557-16.556-43.406-16.556-59.983 0l16.8 16.815c7.308-7.294 19.09-7.294 26.392-.013 3.666 3.675 5.46 8.373 5.462 13.19h23.757c0-10.807-4.157-21.747-12.427-29.992" fill="#ffc311"/><path d="M92.855 151.585c16.567 16.564 43.39 16.554 59.958-.033l-16.805-16.787c-7.29 7.287-19.076 7.288-26.363.03a19.064 19.064 0 0 1-5.541-13.368l-23.774-.11c-.02 10.802 4.266 22.01 12.525 30.268" fill="#4486f4"/><path d="M184.681 78.41c-.027 4.842-1.745 9.68-5.427 13.346-7.339 7.252-19.132 7.194-26.38-.116-16.51-16.624-43.343-16.738-59.99-.254a42.404 42.404 0 0 0-12.554 29.93l23.774.11c.013-4.807 1.825-9.52 5.52-13.172 7.322-7.254 19.117-7.202 26.376.124l.004-.027-.004.027c16.508 16.614 43.334 16.734 59.965.246 8.317-8.203 12.428-19.391 12.473-30.214z" fill="#16a05d"/><path d="M152.826 91.6h.007c-7.273-7.295-7.27-19.093-.007-26.369l-16.8-16.815c-8.483 8.493-12.583 19.684-12.374 30.815 10.587.195 21.103 4.294 29.174 12.37" fill="#dc493c"/></svg>