<svg xmlns="http://www.w3.org/2000/svg" width="627" height="200"><defs><clipPath id="a"><path d="M0 1008.832h2139.362V0H0v1008.832z"/></clipPath></defs><g style="line-height:125%" font-weight="400" font-size="137.5" font-family="Product Sans" letter-spacing="0" word-spacing="0" opacity=".54"><path d="M355.647 100.877q0 20.626-12.237 32.863-13.75 14.575-36.163 14.575-21.45 0-36.3-14.85-14.85-14.85-14.85-36.575t14.85-36.575q14.85-14.85 36.3-14.85 10.863 0 20.488 3.85t15.812 10.862l-9.075 9.075q-4.537-5.5-11.825-8.525-7.15-3.162-15.4-3.162-16.087 0-27.225 11.137-11 11.275-11 28.188 0 16.913 11 28.188 11.138 11.137 27.225 11.137 14.713 0 24.475-8.25 9.763-8.25 11.275-22.688h-35.75V93.453h47.713q.687 3.85.687 7.425zM428.492 47.665v12.1h-44.825v31.212h40.425v11.825h-40.425v31.213h44.825v12.1h-57.475v-98.45h57.475zM537.727 100.877q0 20.626-12.237 32.863-13.75 14.575-36.163 14.575-21.45 0-36.3-14.85-14.85-14.85-14.85-36.575t14.85-36.575q14.85-14.85 36.3-14.85 10.863 0 20.488 3.85t15.812 10.862l-9.075 9.075q-4.537-5.5-11.825-8.525-7.15-3.162-15.4-3.162-16.087 0-27.225 11.137-11 11.275-11 28.188 0 16.913 11 28.188 11.138 11.137 27.225 11.137 14.713 0 24.475-8.25 9.763-8.25 11.275-22.688h-35.75V93.453h47.713q.687 3.85.687 7.425z" style="-inkscape-font-specification:'Product Sans'"/></g><path d="M149.543 160.89L97.18 142.856s-2.568-.994-3.735-2.337c-1.115-1.283-1.115-4.002-1.115-4.002V61.741s-.003-2.373 1.987-3.74c2.434-1.67 5.305-.108 5.305-.108l49.92 23.103v79.894z" fill="#ffc311"/><path d="M149.543 160.89s-6.945-39.721-39.64-41.871V32.967s35.791-4.13 39.64 48.029v79.894z" fill="#4486f4"/><path d="M149.543 160.89l52.364-18.034s2.567-.994 3.734-2.337c1.116-1.283 1.116-4.002 1.116-4.002V61.741s.002-2.373-1.988-3.74c-2.434-1.67-5.304-.108-5.304-.108l-49.922 23.103v79.894z" fill="#16a05d"/><g clip-path="url(#a)" transform="matrix(.61575 0 0 -.61575 40.912 614.745)" fill="#dc4a3d"><path d="M176.419 737.072s11.28 64.508 64.375 68v139.75s-58.125 6.708-64.375-78v-129.75z"/></g></svg>