<svg xmlns="http://www.w3.org/2000/svg" width="200" height="200"><defs><clipPath id="a"><path d="M0 1008.832h2139.362V0H0v1008.832z"/></clipPath></defs><path d="M99.692 167.961l-52.363-18.034s-2.568-.994-3.735-2.337c-1.115-1.283-1.115-4.002-1.115-4.002V68.812s-.003-2.373 1.987-3.74c2.434-1.67 5.305-.108 5.305-.108l49.92 23.103v79.894z" fill="#ffc311"/><path d="M99.692 167.961s-6.945-39.721-39.64-41.871V40.038s35.791-4.13 39.64 48.029v79.894z" fill="#4486f4"/><path d="M99.692 167.961l52.364-18.034s2.567-.994 3.734-2.337c1.116-1.283 1.116-4.002 1.116-4.002V68.812s.002-2.373-1.988-3.74c-2.434-1.67-5.305-.108-5.305-.108L99.692 88.067v79.894z" fill="#16a05d"/><g clip-path="url(#a)" transform="matrix(.61575 0 0 -.61575 -8.939 621.816)" fill="#dc4a3d"><path d="M176.419 737.072s11.28 64.508 64.375 68v139.75s-58.125 6.708-64.375-78v-129.75z"/></g></svg>