<?xml version="1.0" encoding="UTF-8" standalone="no"?>
<!-- Generator: Adobe Illustrator 19.1.0, SVG Export Plug-In . SVG Version: 6.00 Build 0)  -->

<svg
   xmlns:dc="http://purl.org/dc/elements/1.1/"
   xmlns:cc="http://creativecommons.org/ns#"
   xmlns:rdf="http://www.w3.org/1999/02/22-rdf-syntax-ns#"
   xmlns:svg="http://www.w3.org/2000/svg"
   xmlns="http://www.w3.org/2000/svg"
   xmlns:xlink="http://www.w3.org/1999/xlink"
   xmlns:sodipodi="http://sodipodi.sourceforge.net/DTD/sodipodi-0.dtd"
   xmlns:inkscape="http://www.inkscape.org/namespaces/inkscape"
   version="1.1"
   id="Layer_4"
   x="0px"
   y="0px"
   width="200"
   height="200"
   viewBox="0 0 200 200"
   enable-background="new 0 0 691.42 448"
   xml:space="preserve"
   inkscape:version="0.91 r13725"
   sodipodi:docname="GDG.svg"><metadata
     id="metadata89"><rdf:RDF><cc:Work
         rdf:about=""><dc:format>image/svg+xml</dc:format><dc:type
           rdf:resource="http://purl.org/dc/dcmitype/StillImage" /><dc:title></dc:title></cc:Work></rdf:RDF></metadata><defs
     id="defs87" /><sodipodi:namedview
     pagecolor="#ffffff"
     bordercolor="#666666"
     borderopacity="1"
     objecttolerance="10"
     gridtolerance="10"
     guidetolerance="10"
     inkscape:pageopacity="0"
     inkscape:pageshadow="2"
     inkscape:window-width="1920"
     inkscape:window-height="1017"
     id="namedview85"
     showgrid="false"
     inkscape:zoom="2.9617039"
     inkscape:cx="58.836049"
     inkscape:cy="61.810025"
     inkscape:window-x="0"
     inkscape:window-y="30"
     inkscape:window-maximized="1"
     inkscape:current-layer="g4823" /><g
     id="g4260"
     transform="translate(-121.0699,122.73)"><g
       id="g4823"
       transform="translate(90.846677,3.35001)"><g
         id="g3"
         transform="translate(-37.478426,-253.37587)"><g
           id="g5"><g
             id="g7"><defs
               id="defs9"><rect
                 id="SVGID_1_"
                 x="71.940002"
                 y="129.27"
                 width="192"
                 height="192" /></defs><clipPath
               id="SVGID_2_"><use
                 xlink:href="#SVGID_1_"
                 overflow="visible"
                 id="use13"
                 style="overflow:visible"
                 x="0"
                 y="0"
                 width="100%"
                 height="100%" /></clipPath></g></g><g
           id="XMLID_50_"><g
             id="XMLID_72_"><path
               d="m 206.33,219.27 -33.54,-58 -44.85,0 37.02,64 -37.02,64 44.85,0 33.54,-58 c 2.15,-3.71 2.15,-8.29 0,-12 z"
               id="path17"
               inkscape:connector-curvature="0"
               style="fill:none" /><polygon
               id="XMLID_80_"
               points="176.46,245.15 150.94,289.27 172.79,289.27 187.38,264.04 187.09,263.54 "
               style="fill:#ffc107" /><path
               d="m 206.33,219.27 -33.54,-58 -44.85,0 37.02,64 -37.02,64 44.85,0 33.54,-58 c 2.15,-3.71 2.15,-8.29 0,-12 z"
               id="path20"
               inkscape:connector-curvature="0"
               style="fill:none" /><polygon
               points="150.94,289.27 127.94,289.27 164.96,225.27 176.46,245.15 "
               id="polygon22"
               style="fill:#0f9d58" /><path
               d="m 206.33,219.27 -33.54,-58 -44.85,0 37.02,64 -37.02,64 44.85,0 33.54,-58 c 2.15,-3.71 2.15,-8.29 0,-12 z"
               id="path24"
               inkscape:connector-curvature="0"
               style="fill:none" /><polygon
               enable-background="new    "
               points="187.38,264.04 187.09,263.54 172.79,288.27 151.52,288.27 150.94,289.27 172.79,289.27 "
               id="polygon26"
               style="opacity:0.2;fill:#bf360c" /><path
               d="m 206.33,219.27 -33.54,-58 -44.85,0 37.02,64 -37.02,64 44.85,0 33.54,-58 c 2.15,-3.71 2.15,-8.29 0,-12 z"
               id="path28"
               inkscape:connector-curvature="0"
               style="fill:none" /><polygon
               enable-background="new    "
               points="150.94,289.27 151.52,288.27 128.52,288.27 127.94,289.27 "
               id="polygon30"
               style="opacity:0.2;fill:#263238" /><path
               d="m 206.33,219.27 -33.54,-58 -44.85,0 37.02,64 -37.02,64 44.85,0 33.54,-58 c 2.15,-3.71 2.15,-8.29 0,-12 z"
               id="path32"
               inkscape:connector-curvature="0"
               style="fill:none" /><polygon
               enable-background="new    "
               points="165.25,225.77 164.96,225.27 127.94,289.27 128.52,289.27 "
               id="polygon34"
               style="opacity:0.2;fill:#ffffff" /><path
               d="m 206.33,219.27 -33.54,-58 -44.85,0 37.02,64 -37.02,64 44.85,0 33.54,-58 c 2.15,-3.71 2.15,-8.29 0,-12 z"
               id="path36"
               inkscape:connector-curvature="0"
               style="fill:none" /><radialGradient
               id="XMLID_2_"
               cx="187.2166"
               cy="186.356"
               r="44.2635"
               gradientTransform="matrix(1,0,0,-1,30.223223,575.27)"
               gradientUnits="userSpaceOnUse"><stop
                 offset="0"
                 style="stop-color:#BF360C;stop-opacity:0.2"
                 id="stop39" /><stop
                 offset="1"
                 style="stop-color:#BF360C;stop-opacity:0.02"
                 id="stop41" /></radialGradient><polygon
               id="XMLID_79_"
               points="176.46,245.15 173.78,249.78 187.38,264.04 187.38,264.04 "
               style="fill:url(#XMLID_2_)" /><path
               d="m 206.33,219.27 -33.54,-58 -44.85,0 37.02,64 -37.02,64 44.85,0 33.54,-58 c 2.15,-3.71 2.15,-8.29 0,-12 z"
               id="path44"
               inkscape:connector-curvature="0"
               style="fill:none" /><radialGradient
               id="XMLID_3_"
               cx="187.0909"
               cy="186.0761"
               r="44.622799"
               gradientTransform="matrix(1,0,0,-1,30.223223,575.27)"
               gradientUnits="userSpaceOnUse"><stop
                 offset="0"
                 style="stop-color:#263238;stop-opacity:0.2"
                 id="stop47" /><stop
                 offset="1"
                 style="stop-color:#263238;stop-opacity:0.02"
                 id="stop49" /></radialGradient><polygon
               id="XMLID_78_"
               points="164.96,225.27 159.47,234.77 173.78,249.78 176.46,245.15 "
               style="fill:url(#XMLID_3_)" /><path
               d="m 206.33,219.27 -33.54,-58 -44.85,0 37.02,64 -37.02,64 44.85,0 33.54,-58 c 2.15,-3.71 2.15,-8.29 0,-12 z"
               id="path52"
               inkscape:connector-curvature="0"
               style="fill:none" /><g
               id="XMLID_75_"><g
                 id="XMLID_76_"><polygon
                   id="XMLID_77_"
                   points="127.94,161.27 187.38,264.04 198.87,244.17 198.88,244.15 150.94,161.27 "
                   style="fill:#4285f4" /></g></g><path
               d="m 206.33,219.27 -33.54,-58 -44.85,0 37.02,64 -37.02,64 44.85,0 33.54,-58 c 2.15,-3.71 2.15,-8.29 0,-12 z"
               id="path57"
               inkscape:connector-curvature="0"
               style="fill:none" /><path
               d="m 206.33,231.27 c 2.15,-3.71 2.15,-8.29 0,-12 l -33.54,-58 -21.85,0 47.94,82.88 7.45,-12.88 z"
               id="path59"
               inkscape:connector-curvature="0"
               style="fill:#db4437" /><path
               d="m 206.33,219.27 -33.54,-58 -44.85,0 37.02,64 -37.02,64 44.85,0 33.54,-58 c 2.15,-3.71 2.15,-8.29 0,-12 z"
               id="path61"
               inkscape:connector-curvature="0"
               style="fill:none" /><polygon
               enable-background="new    "
               points="198.59,243.66 187.38,263.04 128.52,161.27 127.94,161.27 187.38,264.04 198.87,244.17 198.88,244.15 "
               id="polygon63"
               style="opacity:0.2;fill:#1a237e" /><path
               d="m 206.33,219.27 -33.54,-58 -44.85,0 37.02,64 -37.02,64 44.85,0 33.54,-58 c 2.15,-3.71 2.15,-8.29 0,-12 z"
               id="path65"
               inkscape:connector-curvature="0"
               style="fill:none" /><path
               enable-background="new    "
               d="m 172.79,162.27 33.54,58 c 0.99,1.71 1.5,3.6 1.58,5.5 0.09,-2.24 -0.42,-4.5 -1.58,-6.5 l -33.54,-58 -44.85,0 0.58,1 44.27,0 z"
               id="path67"
               inkscape:connector-curvature="0"
               style="opacity:0.2;fill:#ffffff" /><path
               d="m 206.33,219.27 -33.54,-58 -44.85,0 37.02,64 -37.02,64 44.85,0 33.54,-58 c 2.15,-3.71 2.15,-8.29 0,-12 z"
               id="path69"
               inkscape:connector-curvature="0"
               style="fill:none" /><path
               id="XMLID_74_"
               enable-background="new    "
               d="m 198.88,244.15 7.45,-12.88 c 1.16,-2 1.67,-4.26 1.58,-6.5 -0.08,1.9 -0.59,3.79 -1.58,5.5 l -7.74,13.39 0.29,0.49 z"
               inkscape:connector-curvature="0"
               style="opacity:0.2;fill:#3e2723" /><path
               d="m 206.33,219.27 -33.54,-58 -44.85,0 37.02,64 -37.02,64 44.85,0 33.54,-58 c 2.15,-3.71 2.15,-8.29 0,-12 z"
               id="path72"
               inkscape:connector-curvature="0"
               style="fill:none" /><radialGradient
               id="XMLID_4_"
               cx="126.94"
               cy="287.73001"
               r="134.3503"
               gradientTransform="matrix(1,0,0,-1,30.223223,575.27)"
               gradientUnits="userSpaceOnUse"><stop
                 offset="0"
                 style="stop-color:#FFFFFF;stop-opacity:0.1"
                 id="stop75" /><stop
                 offset="1"
                 style="stop-color:#FFFFFF;stop-opacity:0"
                 id="stop77" /></radialGradient><path
               id="XMLID_73_"
               d="m 206.33,219.27 -33.54,-58 -44.85,0 37.02,64 -37.02,64 44.85,0 33.54,-58 c 2.15,-3.71 2.15,-8.29 0,-12 z"
               inkscape:connector-curvature="0"
               style="fill:url(#XMLID_4_)" /></g></g></g></g></g></svg>