<?xml version="1.0" encoding="UTF-8" standalone="no"?>
<!-- Generator: Adobe Illustrator 19.1.0, SVG Export Plug-In . SVG Version: 6.00 Build 0)  -->

<svg
   xmlns:dc="http://purl.org/dc/elements/1.1/"
   xmlns:cc="http://creativecommons.org/ns#"
   xmlns:rdf="http://www.w3.org/1999/02/22-rdf-syntax-ns#"
   xmlns:svg="http://www.w3.org/2000/svg"
   xmlns="http://www.w3.org/2000/svg"
   xmlns:sodipodi="http://sodipodi.sourceforge.net/DTD/sodipodi-0.dtd"
   xmlns:inkscape="http://www.inkscape.org/namespaces/inkscape"
   version="1.1"
   id="Layer_4"
   x="0px"
   y="0px"
   width="200"
   height="200"
   viewBox="0 0 200 200"
   enable-background="new 0 0 691.42 448"
   xml:space="preserve"
   inkscape:version="0.91 r13725"
   sodipodi:docname="GXG.svg"><metadata
     id="metadata89"><rdf:RDF><cc:Work
         rdf:about=""><dc:format>image/svg+xml</dc:format><dc:type
           rdf:resource="http://purl.org/dc/dcmitype/StillImage" /><dc:title></dc:title></cc:Work></rdf:RDF></metadata><defs
     id="defs87"><clipPath
       clipPathUnits="userSpaceOnUse"
       id="clipPath4949"><path
         d="m 228.306,538.877 -0.003,0 c 3.754,-3.763 3.767,-9.865 0,-13.632 l 0,0 c -1.9,-1.894 -4.328,-2.819 -6.817,-2.827 l 0,0 0.008,-12.267 c 5.584,-0.007 11.217,2.148 15.493,6.42 l 0,0 c 8.555,8.557 8.555,22.427 0,30.984 l 0,0 -8.681,-8.678 z"
         id="path4951"
         inkscape:connector-curvature="0" /></clipPath><clipPath
       clipPathUnits="userSpaceOnUse"
       id="clipPath4957"><path
         d="m 226.458,548.783 40.376,0 0,-19.551 -40.376,0 0,19.551 z"
         id="path4959"
         inkscape:connector-curvature="0" /></clipPath><clipPath
       id="clipPath50"
       clipPathUnits="userSpaceOnUse"><path
         inkscape:connector-curvature="0"
         id="path48"
         d="m 393.352,189.434 -103.957,79.105 49.418,81.684 75.511,-125.844 -16.504,-27.5 -4.468,-7.445" /></clipPath><clipPath
       id="clipPath38"
       clipPathUnits="userSpaceOnUse"><path
         inkscape:connector-curvature="0"
         id="path36"
         d="m 289.395,268.539 -99.856,75.984 76.316,127.293 72.958,-121.593 -49.418,-81.684" /></clipPath><clipPath
       id="clipPath26"
       clipPathUnits="userSpaceOnUse"><path
         inkscape:connector-curvature="0"
         id="path24"
         d="m 397.82,196.879 16.504,27.5 0.008,-0.016 -16.512,-27.484" /></clipPath></defs><sodipodi:namedview
     pagecolor="#ffffff"
     bordercolor="#666666"
     borderopacity="1"
     objecttolerance="10"
     gridtolerance="10"
     guidetolerance="10"
     inkscape:pageopacity="0"
     inkscape:pageshadow="2"
     inkscape:window-width="1920"
     inkscape:window-height="1017"
     id="namedview85"
     showgrid="false"
     inkscape:zoom="2"
     inkscape:cx="82.127949"
     inkscape:cy="94.686099"
     inkscape:window-x="0"
     inkscape:window-y="30"
     inkscape:window-maximized="1"
     inkscape:current-layer="g6041" /><g
     id="g6041"
     transform="translate(81.483415,3.1100098)"><g
       transform="translate(118.66399,3.6504463)"
       id="g7322"><path
         id="path14"
         style="fill:#16a05d;fill-opacity:1;fill-rule:nonzero;stroke:none"
         d="m -61.228279,30.567972 -14.47948,0 c -3.429199,0 -7.689206,2.417224 -9.457607,5.359372 C -109.63398,76.817282 -158.62,158.56797 -158.62,158.56797 l 19.49694,0 77.894781,-127.999998"
         inkscape:connector-curvature="0"
         sodipodi:nodetypes="cscccc" /><path
         id="path18"
         style="fill:#dc4a3d;fill-opacity:1;fill-rule:nonzero;stroke:none"
         d="M -41.65,158.557 -115.17905,35.927344 c -1.76801,-2.942148 -6.02841,-5.359372 -9.45449,-5.359372 l -14.4826,0 77.236871,127.989388"
         inkscape:connector-curvature="0"
         sodipodi:nodetypes="ccscc" /><g
         id="g7318"><path
           sodipodi:nodetypes="ccscc"
           inkscape:connector-curvature="0"
           d="m -61.665119,30.567972 -77.439351,127.989388 14.48844,0 c 3.42865,0 7.68757,-2.40404 9.45652,-5.35674 C -90.814196,112.22403 -41.621,30.567972 -41.621,30.567972"
           style="fill:#ffc311;fill-opacity:1;fill-rule:nonzero;stroke:none"
           id="path16" /><path
           sodipodi:nodetypes="cccscc"
           inkscape:connector-curvature="0"
           d="m -139.11614,30.567972 -19.63386,0 c 0,0 49.0607,81.759158 73.601051,122.632648 1.770579,2.9527 6.02624,5.35674 9.45707,5.35674 l 14.48627,0 -77.910531,-127.989388"
           style="fill:#4486f4;fill-opacity:1;fill-rule:nonzero;stroke:none"
           id="path56" /></g></g></g></svg>