<svg xmlns="http://www.w3.org/2000/svg" width="632" height="200"><g style="line-height:125%" font-weight="400" font-size="137.5" font-family="Product Sans" letter-spacing="0" word-spacing="0" opacity=".54"><path d="M353.633 103.988q0 20.625-12.237 32.862-13.75 14.575-36.163 14.575-21.45 0-36.3-14.85-14.85-14.85-14.85-36.575t14.85-36.575q14.85-14.85 36.3-14.85 10.863 0 20.488 3.85t15.812 10.862l-9.075 9.075q-4.537-5.5-11.825-8.525-7.15-3.162-15.4-3.162-16.087 0-27.225 11.137-11 11.275-11 28.188 0 16.913 11 28.188 11.138 11.137 27.225 11.137 14.713 0 24.475-8.25 9.763-8.25 11.275-22.687h-35.75V96.562h47.713q.687 3.85.687 7.426zM373.468 149.225h-14.85l33-50.875-31.075-47.575h15.125l23.925 37.675h.55l23.925-37.675h15.125L408.118 98.35l33 50.875h-14.85l-26.125-40.287h-.55l-26.125 40.287zM543.233 103.988q0 20.625-12.237 32.862-13.75 14.575-36.163 14.575-21.45 0-36.3-14.85-14.85-14.85-14.85-36.575t14.85-36.575q14.85-14.85 36.3-14.85 10.863 0 20.488 3.85t15.812 10.862l-9.075 9.075q-4.537-5.5-11.825-8.525-7.15-3.162-15.4-3.162-16.087 0-27.225 11.137-11 11.275-11 28.188 0 16.913 11 28.188 11.138 11.137 27.225 11.137 14.713 0 24.475-8.25 9.763-8.25 11.275-22.687h-35.75V96.562h47.713q.687 3.85.687 7.426z" style="-inkscape-font-specification:'Product Sans'"/></g><path d="M184.346 36h-14.48c-3.43 0-7.69 2.417-9.458 5.36C135.94 82.25 86.954 164 86.954 164h19.497l77.895-128" fill="#16a05d"/><path d="M203.924 163.989l-73.53-122.63C128.628 38.417 124.367 36 120.94 36h-14.482l77.237 127.99" fill="#dc4a3d"/><path d="M183.909 36l-77.44 127.99h14.489c3.428 0 7.687-2.405 9.456-5.357C154.76 117.656 203.953 36 203.953 36" fill="#ffc311"/><path d="M106.458 36H86.824s49.06 81.76 73.6 122.633c1.771 2.952 6.027 5.356 9.458 5.356h14.486L106.458 36" fill="#4486f4"/></svg>