<?xml version="1.0" encoding="UTF-8" standalone="no"?>
<svg
   xmlns:dc="http://purl.org/dc/elements/1.1/"
   xmlns:cc="http://creativecommons.org/ns#"
   xmlns:rdf="http://www.w3.org/1999/02/22-rdf-syntax-ns#"
   xmlns:svg="http://www.w3.org/2000/svg"
   xmlns="http://www.w3.org/2000/svg"
   xml:space="preserve"
   enable-background="new 0 0 691.42 448"
   viewBox="0 0 632 200"
   height="14mm"
   width="auto"
   y="0px"
   x="0px"
   id="Layer_4"
   version="1.1"><metadata
     id="metadata89"><rdf:RDF><cc:Work
         rdf:about=""><dc:format>image/svg+xml</dc:format><dc:type
           rdf:resource="http://purl.org/dc/dcmitype/StillImage" /><dc:title></dc:title></cc:Work></rdf:RDF></metadata><defs
     id="defs87"><clipPath
       id="clipPath4949"
       clipPathUnits="userSpaceOnUse"><path
         id="path4951"
         d="m 228.306,538.877 -0.003,0 c 3.754,-3.763 3.767,-9.865 0,-13.632 l 0,0 c -1.9,-1.894 -4.328,-2.819 -6.817,-2.827 l 0,0 0.008,-12.267 c 5.584,-0.007 11.217,2.148 15.493,6.42 l 0,0 c 8.555,8.557 8.555,22.427 0,30.984 l 0,0 -8.681,-8.678 z" /></clipPath><clipPath
       id="clipPath4957"
       clipPathUnits="userSpaceOnUse"><path
         id="path4959"
         d="m 226.458,548.783 40.376,0 0,-19.551 -40.376,0 0,19.551 z" /></clipPath><clipPath
       clipPathUnits="userSpaceOnUse"
       id="clipPath50"><path
         d="m 393.352,189.434 -103.957,79.105 49.418,81.684 75.511,-125.844 -16.504,-27.5 -4.468,-7.445"
         id="path48" /></clipPath><clipPath
       clipPathUnits="userSpaceOnUse"
       id="clipPath38"><path
         d="m 289.395,268.539 -99.856,75.984 76.316,127.293 72.958,-121.593 -49.418,-81.684"
         id="path36" /></clipPath><clipPath
       clipPathUnits="userSpaceOnUse"
       id="clipPath26"><path
         d="m 397.82,196.879 16.504,27.5 0.008,-0.016 -16.512,-27.484"
         id="path24" /></clipPath></defs><g
     transform="translate(81.483415,3.1100098)"
     id="g6041"><g
       id="text4256"
       style="font-style:normal;font-weight:normal;font-size:40px;line-height:125%;font-family:sans-serif;letter-spacing:0px;word-spacing:0px;opacity:0.54;fill:#000000;fill-opacity:1;stroke:none;stroke-width:1px;stroke-linecap:butt;stroke-linejoin:miter;stroke-opacity:1"><path
         id="path3352"
         style="font-style:normal;font-variant:normal;font-weight:normal;font-stretch:normal;font-size:137.5px;font-family:'Product Sans';-inkscape-font-specification:'Product Sans'"
         d="m 272.15,100.8775 q 0,20.625 -12.2375,32.8625 -13.75,14.575 -36.1625,14.575 -21.45,0 -36.3,-14.85 -14.85,-14.85 -14.85,-36.57501 0,-21.725 14.85,-36.575 14.85,-14.85 36.3,-14.85 10.8625,0 20.4875,3.85 9.625,3.85 15.8125,10.8625 l -9.075,9.075 q -4.5375,-5.5 -11.825,-8.525 -7.15,-3.1625 -15.4,-3.1625 -16.0875,0 -27.225,11.1375 -11,11.275 -11,28.1875 0,16.91251 11,28.18751 11.1375,11.1375 27.225,11.1375 14.7125,0 24.475,-8.25 9.7625,-8.25 11.275,-22.6875 l -35.75,0 0,-11.82501 47.7125,0 q 0.6875,3.85 0.6875,7.42501 z" /><path
         id="path3354"
         style="font-style:normal;font-variant:normal;font-weight:normal;font-stretch:normal;font-size:137.5px;font-family:'Product Sans';-inkscape-font-specification:'Product Sans'"
         d="m 291.9844,146.115 -14.85,0 33,-50.87501 -31.075,-47.575 15.125,0 23.925,37.675 0.55,0 23.925,-37.675 15.125,0 -31.075,47.575 33,50.87501 -14.85,0 -26.125,-40.2875 -0.55,0 -26.125,40.2875 z" /><path
         id="path3356"
         style="font-style:normal;font-variant:normal;font-weight:normal;font-stretch:normal;font-size:137.5px;font-family:'Product Sans';-inkscape-font-specification:'Product Sans'"
         d="m 461.7496,100.8775 q 0,20.625 -12.2375,32.8625 -13.75,14.575 -36.1625,14.575 -21.45,0 -36.3,-14.85 -14.85,-14.85 -14.85,-36.57501 0,-21.725 14.85,-36.575 14.85,-14.85 36.3,-14.85 10.8625,0 20.4875,3.85 9.625,3.85 15.8125,10.8625 l -9.075,9.075 q -4.5375,-5.5 -11.825,-8.525 -7.15,-3.1625 -15.4,-3.1625 -16.0875,0 -27.225,11.1375 -11,11.275 -11,28.1875 0,16.91251 11,28.18751 11.1375,11.1375 27.225,11.1375 14.7125,0 24.475,-8.25 9.7625,-8.25 11.275,-22.6875 l -35.75,0 0,-11.82501 47.7125,0 q 0.6875,3.85 0.6875,7.42501 z" /></g><g
       id="g7322"
       transform="translate(164.0904,2.3220192)"><path
         d="m -61.228279,30.567972 -14.47948,0 c -3.429199,0 -7.689206,2.417224 -9.457607,5.359372 C -109.63398,76.817282 -158.62,158.56797 -158.62,158.56797 l 19.49694,0 77.894781,-127.999998"
         style="fill:#16a05d;fill-opacity:1;fill-rule:nonzero;stroke:none"
         id="path14" /><path
         d="M -41.65,158.557 -115.17905,35.927344 c -1.76801,-2.942148 -6.02841,-5.359372 -9.45449,-5.359372 l -14.4826,0 77.236871,127.989388"
         style="fill:#dc4a3d;fill-opacity:1;fill-rule:nonzero;stroke:none"
         id="path18" /><g
         id="g7318"><path
           id="path16"
           style="fill:#ffc311;fill-opacity:1;fill-rule:nonzero;stroke:none"
           d="m -61.665119,30.567972 -77.439351,127.989388 14.48844,0 c 3.42865,0 7.68757,-2.40404 9.45652,-5.35674 C -90.814196,112.22403 -41.621,30.567972 -41.621,30.567972" /><path
           id="path56"
           style="fill:#4486f4;fill-opacity:1;fill-rule:nonzero;stroke:none"
           d="m -139.11614,30.567972 -19.63386,0 c 0,0 49.0607,81.759158 73.601051,122.632648 1.770579,2.9527 6.02624,5.35674 9.45707,5.35674 l 14.48627,0 -77.910531,-127.989388" /></g></g></g></svg>