<?xml version="1.0" encoding="UTF-8" standalone="no"?>
<svg
   xmlns:dc="http://purl.org/dc/elements/1.1/"
   xmlns:cc="http://creativecommons.org/ns#"
   xmlns:rdf="http://www.w3.org/1999/02/22-rdf-syntax-ns#"
   xmlns:svg="http://www.w3.org/2000/svg"
   xmlns="http://www.w3.org/2000/svg"
   xml:space="preserve"
   enable-background="new 0 0 691.42 448"
   viewBox="0 0 643.00002 200"
   height="200"
   width="643"
   y="0px"
   x="0px"
   id="Layer_4"
   version="1.1"><metadata
     id="metadata89"><rdf:RDF><cc:Work
         rdf:about=""><dc:format>image/svg+xml</dc:format><dc:type
           rdf:resource="http://purl.org/dc/dcmitype/StillImage" /><dc:title></dc:title></cc:Work></rdf:RDF></metadata><defs
     id="defs87"><clipPath
       id="clipPath4949"
       clipPathUnits="userSpaceOnUse"><path
         id="path4951"
         d="m 228.306,538.877 -0.003,0 c 3.754,-3.763 3.767,-9.865 0,-13.632 l 0,0 c -1.9,-1.894 -4.328,-2.819 -6.817,-2.827 l 0,0 0.008,-12.267 c 5.584,-0.007 11.217,2.148 15.493,6.42 l 0,0 c 8.555,8.557 8.555,22.427 0,30.984 l 0,0 -8.681,-8.678 z" /></clipPath><clipPath
       id="clipPath4957"
       clipPathUnits="userSpaceOnUse"><path
         id="path4959"
         d="m 226.458,548.783 40.376,0 0,-19.551 -40.376,0 0,19.551 z" /></clipPath></defs><g
     transform="translate(-121.0699,122.73)"
     id="g4260"><g
       transform="translate(74.519315,3.3500101)"
       id="g4214"><g
         id="text4256"
         style="font-style:normal;font-weight:normal;font-size:40px;line-height:125%;font-family:sans-serif;letter-spacing:0px;word-spacing:0px;opacity:0.54;fill:#000000;fill-opacity:1;stroke:none;stroke-width:1px;stroke-linecap:butt;stroke-linejoin:miter;stroke-opacity:1"><path
           id="path3371"
           style="font-style:normal;font-variant:normal;font-weight:normal;font-stretch:normal;font-size:137.5px;font-family:'Product Sans';-inkscape-font-specification:'Product Sans'"
           d="m 404.5296,-22.09251 q 0,20.624999 -12.2375,32.8625 -13.75,14.575 -36.1625,14.575 -21.45,0 -36.3,-14.85 -14.85,-14.850001 -14.85,-36.575 0,-21.725 14.85,-36.575 14.85,-14.85 36.3,-14.85 10.8625,0 20.4875,3.85 9.625,3.85 15.8125,10.8625 l -9.075,9.075 q -4.5375,-5.5 -11.825,-8.525 -7.15,-3.1625 -15.4,-3.1625 -16.0875,0 -27.225,11.1375 -11,11.275 -11,28.1875 0,16.912499 11,28.187499 11.1375,11.137501 27.225,11.137501 14.7125,0 24.475,-8.250001 9.7625,-8.25 11.275,-22.687499 l -35.75,0 0,-11.825 47.7125,0 q 0.6875,3.85 0.6875,7.425 z" /><path
           id="path3373"
           style="font-style:normal;font-variant:normal;font-weight:normal;font-stretch:normal;font-size:137.5px;font-family:'Product Sans';-inkscape-font-specification:'Product Sans'"
           d="m 419.8995,23.14499 0,-98.45 35.6125,0 q 11.6875,0 20.075,7.7 8.3875,7.5625 8.3875,19.1125 0,14.575 -13.3375,20.4875 l 0,0.55 q 7.5625,2.475 12.1,8.6625 4.5375,6.05 4.5375,13.887499 0,12.1 -8.8,20.075001 -8.525,7.975 -21.0375,7.975 l -37.5375,0 z m 12.65,-86.35 0,30.1125 22.9625,0 q 6.7375,0 11.275,-4.5375 4.5375,-4.675 4.5375,-10.5875 0,-5.775 -4.4,-10.45 -4.4,-4.5375 -10.8625,-4.5375 l -23.5125,0 z m 0,41.9375 0,32.3125 25.4375,0 q 6.875,0 11.6875,-4.812501 4.675,-4.8125 4.675,-11.4125 0,-6.462499 -4.8125,-11.274999 -4.8125,-4.8125 -12.1,-4.8125 l -24.8875,0 z" /><path
           id="path3375"
           style="font-style:normal;font-variant:normal;font-weight:normal;font-stretch:normal;font-size:137.5px;font-family:'Product Sans';-inkscape-font-specification:'Product Sans'"
           d="m 596.2776,-22.09251 q 0,20.624999 -12.2375,32.8625 -13.75,14.575 -36.1625,14.575 -21.45,0 -36.3,-14.85 -14.85,-14.850001 -14.85,-36.575 0,-21.725 14.85,-36.575 14.85,-14.85 36.3,-14.85 10.8625,0 20.4875,3.85 9.625,3.85 15.8125,10.8625 l -9.075,9.075 q -4.5375,-5.5 -11.825,-8.525 -7.15,-3.1625 -15.4,-3.1625 -16.0875,0 -27.225,11.1375 -11,11.275 -11,28.1875 0,16.912499 11,28.187499 11.1375,11.137501 27.225,11.137501 14.7125,0 24.475,-8.250001 9.7625,-8.25 11.275,-22.687499 l -35.75,0 0,-11.825 47.7125,0 q 0.6875,3.85 0.6875,7.425 z" /></g><g
         id="g5943"
         transform="matrix(1.5483775,0,0,1.5483775,-195.14474,209.78631)"
         style="stroke:none"><g
           transform="matrix(1.25,0,0,-1.25,235.41167,-126.34738)"
           id="g4941"
           style="stroke:none"><path
             id="path4943"
             style="fill:#dc4a3d;fill-opacity:1;fill-rule:nonzero;stroke:none"
             d="m 0,0 0.007,-0.009 c 2.463,0 4.923184,0.947296 6.809184,2.834296 l 8.6848,-8.6736 C 24.055984,2.708696 24.056,16.579 15.501,25.137 l -8.682,-8.679 -0.003,0 C 10.57,12.695 10.584184,6.593296 6.816184,2.825296 4.917184,0.932296 2.488,0.007 0,0" /></g><g
           transform="matrix(1.25,0,0,-1.25,282.68705,-185.64549)"
           id="g4977"
           style="stroke:none"><path
             id="path4979"
             style="fill:#ffc311;fill-opacity:1;fill-rule:nonzero;stroke:none"
             d="m 0,0 c -8.555,8.554 -22.427,8.554 -30.992,0 l 8.68,-8.688 c 3.776,3.769 9.863,3.769 13.636,0.007 1.894,-1.899 2.82128,-4.326392 2.82228,-6.815392 l 12.2744,0 C 6.42068,-9.912392 4.273,-4.26 0,0" /></g><g
           transform="matrix(1.25,0,0,-1.25,216.0648,-119.01588)"
           id="g4981"
           style="stroke:none"><path
             id="path4983"
             style="fill:#4486f4;fill-opacity:1;fill-rule:nonzero;stroke:none"
             d="m 0,0 c 8.56,-8.558 22.41848,-8.553104 30.97848,0.016896 l -8.6824,8.6736 C 18.52908,4.925496 12.44,4.925 8.675,8.675 6.782,10.574 5.81808,13.104696 5.81208,15.581696 l -12.2832,0.0568 C -6.48112,10.057496 -4.267,4.267 0,0" /></g><g
           transform="matrix(1.25,0,0,-1.25,275.42755,-166.168)"
           id="g4985"
           style="stroke:none"><path
             id="path4987"
             style="fill:#16a05d;fill-opacity:1;fill-rule:nonzero;stroke:none"
             d="M -0.04612,0.0856 C -0.06012,-2.4164 -0.948,-4.916 -2.85,-6.81 c -3.792,-3.747 -9.885,-3.717 -13.63,0.06 -8.53,8.589 -22.394,8.648 -30.995,0.131 -4.282,-4.249 -6.46232,-9.8712 -6.48632,-15.4642 l 12.2832,-0.0568 c 0.007,2.484 0.94312,4.919 2.85212,6.806 3.783,3.748 9.877,3.721 13.628,-0.064 l 0.002,0.014 -0.002,-0.014 c 8.529,-8.584 22.389,-8.646 30.982,-0.127 4.297,4.238 6.42128,10.0186 6.44428,15.6106 z" /></g><g
           transform="matrix(1.25,0,0,-1.25,254.79642,-157.75613)"
           id="g4989"
           style="stroke:none"><path
             id="path4991"
             style="fill:#dc493c;fill-opacity:1;fill-rule:nonzero;stroke:none"
             d="M 0,0 0.004,0 C -3.754,3.769 -3.752,9.865 0,13.624 l -8.68,8.688 C -13.063,17.924 -15.181,12.142 -15.073,6.391 -9.603,6.29 -4.17,4.172 0,0" /></g></g></g></g></svg>