<svg xmlns="http://www.w3.org/2000/svg" height="200" width="630"><defs transform="translate(-30.223 -125.27)"><path id="a" d="M71.94 129.27h192v192h-192z"/></defs><g transform="translate(-30.223 -125.27)"><path d="M206.33 219.27l-33.54-58h-44.85l37.02 64-37.02 64h44.85l33.54-58c2.15-3.71 2.15-8.29 0-12z" fill="none"/><path fill="#ffc107" d="M187.38 264.04l-.29-.5-10.63-18.39-25.52 44.12h21.85z"/><path d="M206.33 219.27l-33.54-58h-44.85l37.02 64-37.02 64h44.85l33.54-58c2.15-3.71 2.15-8.29 0-12z" fill="none"/><path fill="#0f9d58" d="M127.94 289.27l37.02-64 11.5 19.88-25.52 44.12z"/><path d="M206.33 219.27l-33.54-58h-44.85l37.02 64-37.02 64h44.85l33.54-58c2.15-3.71 2.15-8.29 0-12z" fill="none"/><path opacity=".2" fill="#bf360c" d="M172.79 289.27l14.59-25.23-.29-.5-14.3 24.73h-21.27l-.58 1z"/><path d="M206.33 219.27l-33.54-58h-44.85l37.02 64-37.02 64h44.85l33.54-58c2.15-3.71 2.15-8.29 0-12z" fill="none"/><path opacity=".2" fill="#263238" d="M151.52 288.27h-23l-.58 1h23z"/><path d="M206.33 219.27l-33.54-58h-44.85l37.02 64-37.02 64h44.85l33.54-58c2.15-3.71 2.15-8.29 0-12z" fill="none"/><path opacity=".2" fill="#fff" d="M164.96 225.27l-37.02 64h.58l36.73-63.5z"/><path d="M206.33 219.27l-33.54-58h-44.85l37.02 64-37.02 64h44.85l33.54-58c2.15-3.71 2.15-8.29 0-12z" fill="none"/><radialGradient gradientUnits="userSpaceOnUse" gradientTransform="matrix(1 0 0 -1 30.223 575.27)" r="44.264" cy="186.356" cx="187.217" id="b"><stop offset="0" stop-color="#bf360c" stop-opacity=".2"/><stop offset="1" stop-color="#bf360c" stop-opacity=".02"/></radialGradient><path fill="url(#b)" d="M173.78 249.78l13.6 14.26-10.92-18.89z"/><path d="M206.33 219.27l-33.54-58h-44.85l37.02 64-37.02 64h44.85l33.54-58c2.15-3.71 2.15-8.29 0-12z" fill="none"/><radialGradient gradientUnits="userSpaceOnUse" gradientTransform="matrix(1 0 0 -1 30.223 575.27)" r="44.623" cy="186.076" cx="187.091" id="c"><stop offset="0" stop-color="#263238" stop-opacity=".2"/><stop offset="1" stop-color="#263238" stop-opacity=".02"/></radialGradient><path fill="url(#c)" d="M159.47 234.77l14.31 15.01 2.68-4.63-11.5-19.88z"/><path d="M206.33 219.27l-33.54-58h-44.85l37.02 64-37.02 64h44.85l33.54-58c2.15-3.71 2.15-8.29 0-12z" fill="none"/><path fill="#4285f4" d="M198.88 244.15l-47.94-82.88h-23l59.44 102.77 11.49-19.87z"/><path d="M206.33 219.27l-33.54-58h-44.85l37.02 64-37.02 64h44.85l33.54-58c2.15-3.71 2.15-8.29 0-12z" fill="none"/><path d="M206.33 231.27c2.15-3.71 2.15-8.29 0-12l-33.54-58h-21.85l47.94 82.88 7.45-12.88z" fill="#db4437"/><path d="M206.33 219.27l-33.54-58h-44.85l37.02 64-37.02 64h44.85l33.54-58c2.15-3.71 2.15-8.29 0-12z" fill="none"/><path opacity=".2" fill="#1a237e" d="M198.59 243.66l-11.21 19.38-58.86-101.77h-.58l59.44 102.77 11.49-19.87.01-.02z"/><path d="M206.33 219.27l-33.54-58h-44.85l37.02 64-37.02 64h44.85l33.54-58c2.15-3.71 2.15-8.29 0-12z" fill="none"/><path d="M172.79 162.27l33.54 58c.99 1.71 1.5 3.6 1.58 5.5.09-2.24-.42-4.5-1.58-6.5l-33.54-58h-44.85l.58 1h44.27z" opacity=".2" fill="#fff"/><path d="M206.33 219.27l-33.54-58h-44.85l37.02 64-37.02 64h44.85l33.54-58c2.15-3.71 2.15-8.29 0-12z" fill="none"/><path d="M198.88 244.15l7.45-12.88c1.16-2 1.67-4.26 1.58-6.5-.08 1.9-.59 3.79-1.58 5.5l-7.74 13.39.29.49z" opacity=".2" fill="#3e2723"/><path d="M206.33 219.27l-33.54-58h-44.85l37.02 64-37.02 64h44.85l33.54-58c2.15-3.71 2.15-8.29 0-12z" fill="none"/><radialGradient gradientUnits="userSpaceOnUse" gradientTransform="matrix(1 0 0 -1 30.223 575.27)" r="134.35" cy="287.73" cx="126.94" id="d"><stop offset="0" stop-color="#fff" stop-opacity=".1"/><stop offset="1" stop-color="#fff" stop-opacity="0"/></radialGradient><path d="M206.33 219.27l-33.54-58h-44.85l37.02 64-37.02 64h44.85l33.54-58c2.15-3.71 2.15-8.29 0-12z" fill="url(#d)"/></g><g style="line-height:125%" font-weight="400" font-size="137.5" font-family="Product Sans" letter-spacing="0" word-spacing="0" opacity=".54"><path style="-inkscape-font-specification:'Product Sans'" d="M327.164 103.987q0 20.625-12.237 32.863-13.75 14.575-36.163 14.575-21.45 0-36.3-14.85-14.85-14.85-14.85-36.575t14.85-36.575q14.85-14.85 36.3-14.85 10.863 0 20.488 3.85t15.812 10.862l-9.075 9.075q-4.537-5.5-11.825-8.525-7.15-3.162-15.4-3.162-16.087 0-27.225 11.137-11 11.275-11 28.188 0 16.912 11 28.187 11.138 11.138 27.225 11.138 14.713 0 24.475-8.25 9.763-8.25 11.275-22.687h-35.75V96.561h47.713q.687 3.85.687 7.425zM342.534 149.225v-98.45h30.113q22.55 0 36.162 13.612Q422.56 78 422.56 100q0 22.137-13.75 35.75-13.612 13.475-36.162 13.475h-30.113zm12.65-86.35v74.25h17.463q17.187 0 27.087-9.763 9.9-9.9 9.9-27.362 0-17.325-9.9-27.225-9.9-9.9-27.087-9.9h-17.463zM532.34 103.987q0 20.625-12.237 32.863-13.75 14.575-36.163 14.575-21.45 0-36.3-14.85-14.85-14.85-14.85-36.575t14.85-36.575q14.85-14.85 36.3-14.85 10.863 0 20.488 3.85t15.812 10.862l-9.075 9.075q-4.537-5.5-11.825-8.525-7.15-3.162-15.4-3.162-16.087 0-27.225 11.137-11 11.275-11 28.188 0 16.912 11 28.187 11.138 11.138 27.225 11.138 14.713 0 24.475-8.25 9.763-8.25 11.275-22.687h-35.75V96.561h47.713q.687 3.85.687 7.425z"/></g></svg>