<svg xmlns="http://www.w3.org/2000/svg" width="200" height="200"><path d="M138.92 37.328h-14.48c-3.43 0-7.69 2.418-9.458 5.36-24.469 40.89-73.455 122.64-73.455 122.64h19.497l77.895-128" fill="#16a05d"/><path d="M158.497 165.317L84.968 42.687c-1.768-2.941-6.028-5.359-9.454-5.359H61.03l77.237 127.99" fill="#dc4a3d"/><path d="M138.482 37.328l-77.44 127.99h14.49c3.428 0 7.687-2.404 9.456-5.357 24.345-40.977 73.538-122.633 73.538-122.633" fill="#ffc311"/><path d="M61.031 37.328H41.397s49.061 81.76 73.601 122.633c1.771 2.953 6.027 5.357 9.458 5.357h14.486l-77.91-127.99" fill="#4486f4"/></svg>