<?xml version="1.0" encoding="UTF-8" standalone="no"?>
<svg
   xmlns:dc="http://purl.org/dc/elements/1.1/"
   xmlns:cc="http://creativecommons.org/ns#"
   xmlns:rdf="http://www.w3.org/1999/02/22-rdf-syntax-ns#"
   xmlns:svg="http://www.w3.org/2000/svg"
   xmlns="http://www.w3.org/2000/svg"
   xmlns:xlink="http://www.w3.org/1999/xlink"
   xml:space="preserve"
   enable-background="new 0 0 691.42 448"
   viewBox="0 0 630.00001 200"
   height="200"
   width="630"
   y="0px"
   x="0px"
   id="Layer_4"
   version="1.1"><metadata
     id="metadata89"><rdf:RDF><cc:Work
         rdf:about=""><dc:format>image/svg+xml</dc:format><dc:type
           rdf:resource="http://purl.org/dc/dcmitype/StillImage" /><dc:title></dc:title></cc:Work></rdf:RDF></metadata><defs
     id="defs87" /><g
     transform="translate(-121.0699,122.73)"
     id="g4260"><g
       transform="translate(90.846677,3.35001)"
       id="g4823"><g
         transform="translate(0,-251.35001)"
         id="g3"><g
           id="g5"><g
             id="g7"><defs
               id="defs9"><rect
                 height="192"
                 width="192"
                 y="129.27"
                 x="71.940002"
                 id="SVGID_1_" /></defs><clipPath
               id="SVGID_2_"><use
                 height="100%"
                 width="100%"
                 y="0"
                 x="0"
                 style="overflow:visible"
                 id="use13"
                 overflow="visible"
                 xlink:href="#SVGID_1_" /></clipPath></g></g><g
           id="XMLID_50_"><g
             id="XMLID_72_"><path
               style="fill:none"
               id="path17"
               d="m 206.33,219.27 -33.54,-58 -44.85,0 37.02,64 -37.02,64 44.85,0 33.54,-58 c 2.15,-3.71 2.15,-8.29 0,-12 z" /><polygon
               style="fill:#ffc107"
               points="187.38,264.04 187.09,263.54 176.46,245.15 150.94,289.27 172.79,289.27 "
               id="XMLID_80_" /><path
               style="fill:none"
               id="path20"
               d="m 206.33,219.27 -33.54,-58 -44.85,0 37.02,64 -37.02,64 44.85,0 33.54,-58 c 2.15,-3.71 2.15,-8.29 0,-12 z" /><polygon
               style="fill:#0f9d58"
               id="polygon22"
               points="127.94,289.27 164.96,225.27 176.46,245.15 150.94,289.27 " /><path
               style="fill:none"
               id="path24"
               d="m 206.33,219.27 -33.54,-58 -44.85,0 37.02,64 -37.02,64 44.85,0 33.54,-58 c 2.15,-3.71 2.15,-8.29 0,-12 z" /><polygon
               style="opacity:0.2;fill:#bf360c"
               id="polygon26"
               points="172.79,289.27 187.38,264.04 187.09,263.54 172.79,288.27 151.52,288.27 150.94,289.27 "
               enable-background="new    " /><path
               style="fill:none"
               id="path28"
               d="m 206.33,219.27 -33.54,-58 -44.85,0 37.02,64 -37.02,64 44.85,0 33.54,-58 c 2.15,-3.71 2.15,-8.29 0,-12 z" /><polygon
               style="opacity:0.2;fill:#263238"
               id="polygon30"
               points="151.52,288.27 128.52,288.27 127.94,289.27 150.94,289.27 "
               enable-background="new    " /><path
               style="fill:none"
               id="path32"
               d="m 206.33,219.27 -33.54,-58 -44.85,0 37.02,64 -37.02,64 44.85,0 33.54,-58 c 2.15,-3.71 2.15,-8.29 0,-12 z" /><polygon
               style="opacity:0.2;fill:#ffffff"
               id="polygon34"
               points="164.96,225.27 127.94,289.27 128.52,289.27 165.25,225.77 "
               enable-background="new    " /><path
               style="fill:none"
               id="path36"
               d="m 206.33,219.27 -33.54,-58 -44.85,0 37.02,64 -37.02,64 44.85,0 33.54,-58 c 2.15,-3.71 2.15,-8.29 0,-12 z" /><radialGradient
               gradientUnits="userSpaceOnUse"
               gradientTransform="matrix(1,0,0,-1,30.223223,575.27)"
               r="44.2635"
               cy="186.356"
               cx="187.2166"
               id="XMLID_2_"><stop
                 id="stop39"
                 style="stop-color:#BF360C;stop-opacity:0.2"
                 offset="0" /><stop
                 id="stop41"
                 style="stop-color:#BF360C;stop-opacity:0.02"
                 offset="1" /></radialGradient><polygon
               style="fill:url(#XMLID_2_)"
               points="173.78,249.78 187.38,264.04 187.38,264.04 176.46,245.15 "
               id="XMLID_79_" /><path
               style="fill:none"
               id="path44"
               d="m 206.33,219.27 -33.54,-58 -44.85,0 37.02,64 -37.02,64 44.85,0 33.54,-58 c 2.15,-3.71 2.15,-8.29 0,-12 z" /><radialGradient
               gradientUnits="userSpaceOnUse"
               gradientTransform="matrix(1,0,0,-1,30.223223,575.27)"
               r="44.622799"
               cy="186.0761"
               cx="187.0909"
               id="XMLID_3_"><stop
                 id="stop47"
                 style="stop-color:#263238;stop-opacity:0.2"
                 offset="0" /><stop
                 id="stop49"
                 style="stop-color:#263238;stop-opacity:0.02"
                 offset="1" /></radialGradient><polygon
               style="fill:url(#XMLID_3_)"
               points="159.47,234.77 173.78,249.78 176.46,245.15 164.96,225.27 "
               id="XMLID_78_" /><path
               style="fill:none"
               id="path52"
               d="m 206.33,219.27 -33.54,-58 -44.85,0 37.02,64 -37.02,64 44.85,0 33.54,-58 c 2.15,-3.71 2.15,-8.29 0,-12 z" /><g
               id="XMLID_75_"><g
                 id="XMLID_76_"><polygon
                   style="fill:#4285f4"
                   points="198.88,244.15 150.94,161.27 127.94,161.27 187.38,264.04 198.87,244.17 "
                   id="XMLID_77_" /></g></g><path
               style="fill:none"
               id="path57"
               d="m 206.33,219.27 -33.54,-58 -44.85,0 37.02,64 -37.02,64 44.85,0 33.54,-58 c 2.15,-3.71 2.15,-8.29 0,-12 z" /><path
               style="fill:#db4437"
               id="path59"
               d="m 206.33,231.27 c 2.15,-3.71 2.15,-8.29 0,-12 l -33.54,-58 -21.85,0 47.94,82.88 7.45,-12.88 z" /><path
               style="fill:none"
               id="path61"
               d="m 206.33,219.27 -33.54,-58 -44.85,0 37.02,64 -37.02,64 44.85,0 33.54,-58 c 2.15,-3.71 2.15,-8.29 0,-12 z" /><polygon
               style="opacity:0.2;fill:#1a237e"
               id="polygon63"
               points="198.59,243.66 187.38,263.04 128.52,161.27 127.94,161.27 187.38,264.04 198.87,244.17 198.88,244.15 "
               enable-background="new    " /><path
               style="fill:none"
               id="path65"
               d="m 206.33,219.27 -33.54,-58 -44.85,0 37.02,64 -37.02,64 44.85,0 33.54,-58 c 2.15,-3.71 2.15,-8.29 0,-12 z" /><path
               style="opacity:0.2;fill:#ffffff"
               id="path67"
               d="m 172.79,162.27 33.54,58 c 0.99,1.71 1.5,3.6 1.58,5.5 0.09,-2.24 -0.42,-4.5 -1.58,-6.5 l -33.54,-58 -44.85,0 0.58,1 44.27,0 z"
               enable-background="new    " /><path
               style="fill:none"
               id="path69"
               d="m 206.33,219.27 -33.54,-58 -44.85,0 37.02,64 -37.02,64 44.85,0 33.54,-58 c 2.15,-3.71 2.15,-8.29 0,-12 z" /><path
               style="opacity:0.2;fill:#3e2723"
               d="m 198.88,244.15 7.45,-12.88 c 1.16,-2 1.67,-4.26 1.58,-6.5 -0.08,1.9 -0.59,3.79 -1.58,5.5 l -7.74,13.39 0.29,0.49 z"
               enable-background="new    "
               id="XMLID_74_" /><path
               style="fill:none"
               id="path72"
               d="m 206.33,219.27 -33.54,-58 -44.85,0 37.02,64 -37.02,64 44.85,0 33.54,-58 c 2.15,-3.71 2.15,-8.29 0,-12 z" /><radialGradient
               gradientUnits="userSpaceOnUse"
               gradientTransform="matrix(1,0,0,-1,30.223223,575.27)"
               r="134.3503"
               cy="287.73001"
               cx="126.94"
               id="XMLID_4_"><stop
                 id="stop75"
                 style="stop-color:#FFFFFF;stop-opacity:0.1"
                 offset="0" /><stop
                 id="stop77"
                 style="stop-color:#FFFFFF;stop-opacity:0"
                 offset="1" /></radialGradient><path
               style="fill:url(#XMLID_4_)"
               d="m 206.33,219.27 -33.54,-58 -44.85,0 37.02,64 -37.02,64 44.85,0 33.54,-58 c 2.15,-3.71 2.15,-8.29 0,-12 z"
               id="XMLID_73_" /></g></g></g><g
         id="text4256"
         style="font-style:normal;font-weight:normal;font-size:40px;line-height:125%;font-family:sans-serif;letter-spacing:0px;word-spacing:0px;opacity:0.54;fill:#000000;fill-opacity:1;stroke:none;stroke-width:1px;stroke-linecap:butt;stroke-linejoin:miter;stroke-opacity:1"><path
           id="path3383"
           style="font-style:normal;font-variant:normal;font-weight:normal;font-stretch:normal;font-size:137.5px;font-family:'Product Sans';-inkscape-font-specification:'Product Sans'"
           d="m 357.3875,-22.09251 q 0,20.624999 -12.2375,32.8625 -13.75,14.575 -36.1625,14.575 -21.45,0 -36.3,-14.85 -14.85,-14.850001 -14.85,-36.575 0,-21.725 14.85,-36.575 14.85,-14.85 36.3,-14.85 10.8625,0 20.4875,3.85 9.625,3.85 15.8125,10.8625 l -9.075,9.075 q -4.5375,-5.5 -11.825,-8.525 -7.15,-3.1625 -15.4,-3.1625 -16.0875,0 -27.225,11.1375 -11,11.275 -11,28.1875 0,16.912499 11,28.187499 11.1375,11.137501 27.225,11.137501 14.7125,0 24.475,-8.250001 9.7625,-8.25 11.275,-22.687499 l -35.75,0 0,-11.825 47.7125,0 q 0.6875,3.85 0.6875,7.425 z" /><path
           id="path3385"
           style="font-style:normal;font-variant:normal;font-weight:normal;font-stretch:normal;font-size:137.5px;font-family:'Product Sans';-inkscape-font-specification:'Product Sans'"
           d="m 372.7574,23.14499 0,-98.45 30.1125,0 q 22.55,0 36.1625,13.6125 13.75,13.6125 13.75,35.6125 0,22.137499 -13.75,35.749999 -13.6125,13.475001 -36.1625,13.475001 l -30.1125,0 z m 12.65,-86.35 0,74.25 17.4625,0 q 17.1875,0 27.0875,-9.762501 9.9,-9.9 9.9,-27.362499 0,-17.325 -9.9,-27.225 -9.9,-9.9 -27.0875,-9.9 l -17.4625,0 z" /><path
           id="path3387"
           style="font-style:normal;font-variant:normal;font-weight:normal;font-stretch:normal;font-size:137.5px;font-family:'Product Sans';-inkscape-font-specification:'Product Sans'"
           d="m 562.5633,-22.09251 q 0,20.624999 -12.2375,32.8625 -13.75,14.575 -36.1625,14.575 -21.45,0 -36.3,-14.85 -14.85,-14.850001 -14.85,-36.575 0,-21.725 14.85,-36.575 14.85,-14.85 36.3,-14.85 10.8625,0 20.4875,3.85 9.625,3.85 15.8125,10.8625 l -9.075,9.075 q -4.5375,-5.5 -11.825,-8.525 -7.15,-3.1625 -15.4,-3.1625 -16.0875,0 -27.225,11.1375 -11,11.275 -11,28.1875 0,16.912499 11,28.187499 11.1375,11.137501 27.225,11.137501 14.7125,0 24.475,-8.250001 9.7625,-8.25 11.275,-22.687499 l -35.75,0 0,-11.825 47.7125,0 q 0.6875,3.85 0.6875,7.425 z" /></g></g></g></svg>