<svg id="Layer_1" data-name="Layer 1" xmlns="http://www.w3.org/2000/svg" viewBox="0 0 688 155.86"><defs><style>.cls-1,.cls-4{fill:#2f8cbb;}.cls-2{fill:#555;}.cls-3{fill:#ccc;}.cls-3,.cls-4{fill-rule:evenodd;}</style></defs><path class="cls-1" d="M296.75,259.33c0,2.44-.54,4.18-1.63,5.24s-3,1.58-5.76,1.58-4.67-.53-5.76-1.58-1.63-2.8-1.63-5.24.54-4.09,1.63-5.18,3-1.63,5.76-1.63,4.67.54,5.76,1.63S296.75,257,296.75,259.33ZM283,273.45H295.5v49.92H283Z" transform="translate(-76.95 -219.71)"/><path class="cls-1" d="M305.68,323.37v-34a21.83,21.83,0,0,1,1.34-8.06,12.39,12.39,0,0,1,4.13-5.43,18.71,18.71,0,0,1,7.11-3,47.88,47.88,0,0,1,10.27-1q11.89,0,17.33,4t5.42,13.49v34H338.8V290.92a22.59,22.59,0,0,0-.29-3.84,5.35,5.35,0,0,0-1.29-2.74,6.17,6.17,0,0,0-3.08-1.63,30,30,0,0,0-11.23,0,6.5,6.5,0,0,0-3.12,1.63,5.18,5.18,0,0,0-1.34,2.74,22.59,22.59,0,0,0-.29,3.84v32.45Z" transform="translate(-76.95 -219.71)"/><path class="cls-1" d="M389.3,323.37h-7.78a46.87,46.87,0,0,1-9.94-.87,12.56,12.56,0,0,1-6.14-3,11.55,11.55,0,0,1-3.12-5.81,40.19,40.19,0,0,1-.86-9.12V261.83l12.48-2v13.64h17.95l-2,10.27H373.94v20.16a27.21,27.21,0,0,0,.33,4.7,5.67,5.67,0,0,0,1.25,2.83,4.58,4.58,0,0,0,2.59,1.35,22.83,22.83,0,0,0,4.27.33h8.93Z" transform="translate(-76.95 -219.71)"/><path class="cls-1" d="M420.59,281.32a21.15,21.15,0,0,0-5.28.53,5.93,5.93,0,0,0-3.17,1.92,7.67,7.67,0,0,0-1.53,3.74,37.87,37.87,0,0,0-.39,6h20.64V291.3a19.7,19.7,0,0,0-.48-4.7,6.38,6.38,0,0,0-1.63-3.07,6.77,6.77,0,0,0-3.17-1.68A19.59,19.59,0,0,0,420.59,281.32Zm-10.37,21.31a33.58,33.58,0,0,0,.39,5.66,6.37,6.37,0,0,0,1.58,3.46,6.49,6.49,0,0,0,3.31,1.73,26.09,26.09,0,0,0,5.57.48h7.68c2.88,0,6.43-.07,10.66-.19l-1.92,9.6c-1.79.06-3.39.11-4.8.14s-2.77.05-4.08.05H420.5A34.58,34.58,0,0,1,409.26,322a15.13,15.13,0,0,1-10.51-11.47,41,41,0,0,1-1-9.55v-5.38a44.13,44.13,0,0,1,1.06-10.17,17.07,17.07,0,0,1,3.7-7.44,16.07,16.07,0,0,1,7.1-4.56,35,35,0,0,1,11.28-1.54,33.65,33.65,0,0,1,10.51,1.39,17.16,17.16,0,0,1,6.72,3.89,13.81,13.81,0,0,1,3.6,5.9,24.91,24.91,0,0,1,1.06,7.44v1.64a29.55,29.55,0,0,1-.39,5.32,7.19,7.19,0,0,1-1.29,3.22,4.37,4.37,0,0,1-2.35,1.54,14.36,14.36,0,0,1-3.56.38Z" transform="translate(-76.95 -219.71)"/><path class="cls-1" d="M484.34,318a15.43,15.43,0,0,1-4.9,2.5,26.73,26.73,0,0,1-8,1A32.26,32.26,0,0,1,461.06,320a15.23,15.23,0,0,1-6.72-4.37,17.31,17.31,0,0,1-3.65-7.35A42.33,42.33,0,0,1,449.58,298v-2.69a45,45,0,0,1,1-10,16.13,16.13,0,0,1,3.7-7.34,16.62,16.62,0,0,1,7.25-4.51,44.92,44.92,0,0,1,23.47,0,17.24,17.24,0,0,1,7.25,4.47,15.27,15.27,0,0,1,3.6,7,39.63,39.63,0,0,1,1,9.07v24.77a33.4,33.4,0,0,1-1.3,9.89,14.77,14.77,0,0,1-4.18,6.72,17.68,17.68,0,0,1-7.39,3.79,43.09,43.09,0,0,1-10.94,1.2h-7.78c-1.41,0-3,0-4.65-.05l-6-.14,2-10c1.79.07,3.41.11,4.85.15s2.78,0,4,0h7a24.75,24.75,0,0,0,5.52-.52,8.22,8.22,0,0,0,3.7-1.83,7.17,7.17,0,0,0,2.06-3.6,22.18,22.18,0,0,0,.63-5.76Zm-11-6.53a23.2,23.2,0,0,0,5.56-.53,7,7,0,0,0,3.36-1.77,6.31,6.31,0,0,0,1.68-3.36,27.38,27.38,0,0,0,.44-5.38v-4.7a67.63,67.63,0,0,0-.29-6.91,8.43,8.43,0,0,0-1.44-4.23,5.9,5.9,0,0,0-3.36-2.11,30.86,30.86,0,0,0-11.91,0,5.9,5.9,0,0,0-3.36,2.11,8.63,8.63,0,0,0-1.44,4.23,68.05,68.05,0,0,0-.28,6.91v1.92a58.77,58.77,0,0,0,.33,6.91,9.23,9.23,0,0,0,1.44,4.22,5.68,5.68,0,0,0,3.31,2.12A24.85,24.85,0,0,0,473.3,311.46Z" transform="translate(-76.95 -219.71)"/><path class="cls-1" d="M519.47,323.37H507V290.53a21.53,21.53,0,0,1,1.35-8.11,12.54,12.54,0,0,1,3.93-5.33,16.49,16.49,0,0,1,6.34-2.92,36,36,0,0,1,8.54-.92h6.24c1.73,0,3.43,0,5.09.1l-2,10.37c-1.28-.07-2.68-.11-4.22-.15s-2.82,0-3.84,0a15.92,15.92,0,0,0-4.8.57,6.09,6.09,0,0,0-2.69,1.68,5.3,5.3,0,0,0-1.2,2.79,28.51,28.51,0,0,0-.24,4Z" transform="translate(-76.95 -219.71)"/><path class="cls-1" d="M577,295.62a42.92,42.92,0,0,0-.48-7.15,8.88,8.88,0,0,0-1.68-4.18,5.87,5.87,0,0,0-3.36-1.92,26.8,26.8,0,0,0-5.62-.48,27.42,27.42,0,0,0-5.66.48,5.88,5.88,0,0,0-3.41,1.92,8.88,8.88,0,0,0-1.68,4.18,42.92,42.92,0,0,0-.48,7.15v5.67a42,42,0,0,0,.48,7.1,8.81,8.81,0,0,0,1.68,4.13,5.88,5.88,0,0,0,3.41,1.92,27.42,27.42,0,0,0,5.66.48,26.8,26.8,0,0,0,5.62-.48,5.87,5.87,0,0,0,3.36-1.92,8.81,8.81,0,0,0,1.68-4.13,42,42,0,0,0,.48-7.1Zm-11.14-23.71a44.66,44.66,0,0,1,10.94,1.15,16.46,16.46,0,0,1,7.4,3.89,15.69,15.69,0,0,1,4.17,7.34,43.12,43.12,0,0,1,1.3,11.52V301a43,43,0,0,1-1.3,11.52,15.69,15.69,0,0,1-4.17,7.34,16.36,16.36,0,0,1-7.4,3.89,44.66,44.66,0,0,1-10.94,1.15,45.24,45.24,0,0,1-11-1.15,16.32,16.32,0,0,1-7.39-3.89,15.78,15.78,0,0,1-4.18-7.34A43.47,43.47,0,0,1,541.94,301v-5.19a43.58,43.58,0,0,1,1.29-11.52,15.78,15.78,0,0,1,4.18-7.34,16.42,16.42,0,0,1,7.39-3.89A45.24,45.24,0,0,1,565.84,271.91Z" transform="translate(-76.95 -219.71)"/><path class="cls-2" d="M724.34,314.34c0,3.39-.77,5.75-2.31,7.06s-4.19,2-8,2H698.42q-10.27,0-14.55-3.84t-4.27-11v-2.12q0-8,4.7-11.56t14.69-3.6a35.76,35.76,0,0,1,8.31.81,17.2,17.2,0,0,1,4.94,1.87v-1.72a15.06,15.06,0,0,0-.53-4.32,5.42,5.42,0,0,0-1.77-2.74,7.41,7.41,0,0,0-3.41-1.39,31.38,31.38,0,0,0-5.43-.39h-4c-1.47,0-3,0-4.46.05l-4.47.1c-1.47,0-2.81,0-4,0l2-10.08q2.68-.1,6.72-.15t8.83-.05q11.72,0,17.18,4.13t5.48,13Zm-12.1,0v-7.77a10.72,10.72,0,0,0-.34-2.93,3.52,3.52,0,0,0-1.39-2,7.08,7.08,0,0,0-3-1.1,30.08,30.08,0,0,0-5.09-.34H701q-5.47,0-7.39,1.34t-1.92,4.9v1.82a5.62,5.62,0,0,0,1.77,4.56c1.19,1,3.38,1.49,6.58,1.49Z" transform="translate(-76.95 -219.71)"/><path class="cls-2" d="M762.35,323.37h-7.77a46.74,46.74,0,0,1-9.94-.87,12.56,12.56,0,0,1-6.14-3,11.4,11.4,0,0,1-3.12-5.81,40.13,40.13,0,0,1-.87-9.12V261.83l12.48-2v13.64h18l-2,10.27H747v20.16a26.11,26.11,0,0,0,.34,4.7,5.58,5.58,0,0,0,1.25,2.83,4.55,4.55,0,0,0,2.59,1.35,22.76,22.76,0,0,0,4.27.33h8.93Z" transform="translate(-76.95 -219.71)"/><path class="cls-2" d="M598.86,306.46V289.19a21.53,21.53,0,0,1,1.35-8.11,12.34,12.34,0,0,1,4-5.33,17.1,17.1,0,0,1,6.48-2.93,38.36,38.36,0,0,1,8.83-.91,26.87,26.87,0,0,1,9.17,1.44,13.88,13.88,0,0,1,6.19,4.13,14,14,0,0,1,6.24-4.13,27.69,27.69,0,0,1,9.32-1.44,37.82,37.82,0,0,1,8.73.91,17.1,17.1,0,0,1,6.48,2.93,12.44,12.44,0,0,1,4,5.33,21.74,21.74,0,0,1,1.34,8.11v34.18H658.48V290.92a26.8,26.8,0,0,0-.24-3.84,5.77,5.77,0,0,0-1.1-2.74,5.12,5.12,0,0,0-2.64-1.63,17.36,17.36,0,0,0-4.76-.53,16.22,16.22,0,0,0-4.41.48,6,6,0,0,0-2.59,1.44,4.56,4.56,0,0,0-1.25,2.4,17.45,17.45,0,0,0-.29,3.36V315H628.72V290.92a26.8,26.8,0,0,0-.24-3.84,5.44,5.44,0,0,0-1.15-2.74,5.38,5.38,0,0,0-2.64-1.63,21.15,21.15,0,0,0-9.41,0,5,5,0,0,0-2.59,1.63,5.68,5.68,0,0,0-1.11,2.74,26.8,26.8,0,0,0-.24,3.84v15.54Z" transform="translate(-76.95 -219.71)"/><path class="cls-3" d="M128.91,224.15v28.51a51.94,51.94,0,1,0,51.93,0V224.15a77.93,77.93,0,1,1-51.93,0Z" transform="translate(-76.95 -219.71)"/><path class="cls-4" d="M141.89,220.79a78.6,78.6,0,0,1,26,0v26.56a52.23,52.23,0,0,0-26,0Z" transform="translate(-76.95 -219.71)"/><path class="cls-4" d="M141.89,321.44V260.91a39.09,39.09,0,0,1,26,0v60.53a39.09,39.09,0,0,1-26,0Z" transform="translate(-76.95 -219.71)"/></svg>