<?xml version="1.0" encoding="UTF-8" standalone="no"?>
<!-- Generator: Adobe Illustrator 19.1.0, SVG Export Plug-In . SVG Version: 6.00 Build 0)  -->

<svg
   xmlns:dc="http://purl.org/dc/elements/1.1/"
   xmlns:cc="http://creativecommons.org/ns#"
   xmlns:rdf="http://www.w3.org/1999/02/22-rdf-syntax-ns#"
   xmlns:svg="http://www.w3.org/2000/svg"
   xmlns="http://www.w3.org/2000/svg"
   xmlns:sodipodi="http://sodipodi.sourceforge.net/DTD/sodipodi-0.dtd"
   xmlns:inkscape="http://www.inkscape.org/namespaces/inkscape"
   version="1.1"
   id="Layer_4"
   x="0px"
   y="0px"
   width="200"
   height="200"
   viewBox="0 0 200.00001 200"
   enable-background="new 0 0 691.42 448"
   xml:space="preserve"
   inkscape:version="0.91 r13725"
   sodipodi:docname="GBG.svg"><metadata
     id="metadata89"><rdf:RDF><cc:Work
         rdf:about=""><dc:format>image/svg+xml</dc:format><dc:type
           rdf:resource="http://purl.org/dc/dcmitype/StillImage" /><dc:title></dc:title></cc:Work></rdf:RDF></metadata><defs
     id="defs87"><clipPath
       clipPathUnits="userSpaceOnUse"
       id="clipPath4949"><path
         d="m 228.306,538.877 -0.003,0 c 3.754,-3.763 3.767,-9.865 0,-13.632 l 0,0 c -1.9,-1.894 -4.328,-2.819 -6.817,-2.827 l 0,0 0.008,-12.267 c 5.584,-0.007 11.217,2.148 15.493,6.42 l 0,0 c 8.555,8.557 8.555,22.427 0,30.984 l 0,0 -8.681,-8.678 z"
         id="path4951"
         inkscape:connector-curvature="0" /></clipPath><clipPath
       clipPathUnits="userSpaceOnUse"
       id="clipPath4957"><path
         d="m 226.458,548.783 40.376,0 0,-19.551 -40.376,0 0,19.551 z"
         id="path4959"
         inkscape:connector-curvature="0" /></clipPath></defs><sodipodi:namedview
     pagecolor="#ffffff"
     bordercolor="#666666"
     borderopacity="1"
     objecttolerance="10"
     gridtolerance="10"
     guidetolerance="10"
     inkscape:pageopacity="0"
     inkscape:pageshadow="2"
     inkscape:window-width="1920"
     inkscape:window-height="1017"
     id="namedview85"
     showgrid="false"
     inkscape:zoom="2.8284271"
     inkscape:cx="-19.366458"
     inkscape:cy="113.86975"
     inkscape:window-x="0"
     inkscape:window-y="30"
     inkscape:window-maximized="1"
     inkscape:current-layer="g4214" /><g
     id="g4260"
     transform="translate(-121.0699,122.73)"><g
       id="g4214"
       transform="translate(74.519315,3.3500101)"><g
         style="stroke:none"
         transform="matrix(1.5483775,0,0,1.5483775,-239.33891,210.49343)"
         id="g5943"><g
           style="stroke:none"
           id="g4941"
           transform="matrix(1.25,0,0,-1.25,235.41167,-126.34738)"><path
             d="m 0,0 0.007,-0.009 c 2.463,0 4.923184,0.947296 6.809184,2.834296 l 8.6848,-8.6736 C 24.055984,2.708696 24.056,16.579 15.501,25.137 l -8.682,-8.679 -0.003,0 C 10.57,12.695 10.584184,6.593296 6.816184,2.825296 4.917184,0.932296 2.488,0.007 0,0"
             style="fill:#dc4a3d;fill-opacity:1;fill-rule:nonzero;stroke:none"
             id="path4943"
             inkscape:connector-curvature="0"
             sodipodi:nodetypes="ccccccccc" /></g><g
           style="stroke:none"
           id="g4977"
           transform="matrix(1.25,0,0,-1.25,282.68705,-185.64549)"><path
             d="m 0,0 c -8.555,8.554 -22.427,8.554 -30.992,0 l 8.68,-8.688 c 3.776,3.769 9.863,3.769 13.636,0.007 1.894,-1.899 2.82128,-4.326392 2.82228,-6.815392 l 12.2744,0 C 6.42068,-9.912392 4.273,-4.26 0,0"
             style="fill:#ffc311;fill-opacity:1;fill-rule:nonzero;stroke:none"
             id="path4979"
             inkscape:connector-curvature="0"
             sodipodi:nodetypes="ccccccc" /></g><g
           style="stroke:none"
           id="g4981"
           transform="matrix(1.25,0,0,-1.25,216.0648,-119.01588)"><path
             d="m 0,0 c 8.56,-8.558 22.41848,-8.553104 30.97848,0.016896 l -8.6824,8.6736 C 18.52908,4.925496 12.44,4.925 8.675,8.675 6.782,10.574 5.81808,13.104696 5.81208,15.581696 l -12.2832,0.0568 C -6.48112,10.057496 -4.267,4.267 0,0"
             style="fill:#4486f4;fill-opacity:1;fill-rule:nonzero;stroke:none"
             id="path4983"
             inkscape:connector-curvature="0"
             sodipodi:nodetypes="ccccccc" /></g><g
           style="stroke:none"
           id="g4985"
           transform="matrix(1.25,0,0,-1.25,275.42755,-166.168)"><path
             d="M -0.04612,0.0856 C -0.06012,-2.4164 -0.948,-4.916 -2.85,-6.81 c -3.792,-3.747 -9.885,-3.717 -13.63,0.06 -8.53,8.589 -22.394,8.648 -30.995,0.131 -4.282,-4.249 -6.46232,-9.8712 -6.48632,-15.4642 l 12.2832,-0.0568 c 0.007,2.484 0.94312,4.919 2.85212,6.806 3.783,3.748 9.877,3.721 13.628,-0.064 l 0.002,0.014 -0.002,-0.014 c 8.529,-8.584 22.389,-8.646 30.982,-0.127 4.297,4.238 6.42128,10.0186 6.44428,15.6106 z"
             style="fill:#16a05d;fill-opacity:1;fill-rule:nonzero;stroke:none"
             id="path4987"
             inkscape:connector-curvature="0"
             sodipodi:nodetypes="ccccccccccccc" /></g><g
           style="stroke:none"
           id="g4989"
           transform="matrix(1.25,0,0,-1.25,254.79642,-157.75613)"><path
             d="M 0,0 0.004,0 C -3.754,3.769 -3.752,9.865 0,13.624 l -8.68,8.688 C -13.063,17.924 -15.181,12.142 -15.073,6.391 -9.603,6.29 -4.17,4.172 0,0"
             style="fill:#dc493c;fill-opacity:1;fill-rule:nonzero;stroke:none"
             id="path4991"
             inkscape:connector-curvature="0" /></g></g></g></g></svg>