<svg id="Réteg_1" data-name="Réteg 1" xmlns="http://www.w3.org/2000/svg" width="300" height="61" viewBox="0 0 461 93"><defs><style>.cls-1{fill:#8a8a8d;}.cls-2{fill:#0082cb;}.cls-3{fill:#00af41;}.cls-4{fill:#ffc627;}.cls-5{fill:#f7323f;}</style></defs><title>logo-gug</title><path class="cls-1" d="M100.85,46.7c0-20.41,15.87-36.88,36.28-36.88a35.44,35.44,0,0,1,24.15,9.4l-6.57,6.16a26.74,26.74,0,0,0-17.58-6.77c-15.16,0-26.78,12.73-26.78,28.19s11.72,28.1,26.78,28.1c12.43,0,21.93-7.08,23.34-18.29a9.27,9.27,0,0,0,.2-1.82H139.86V46.5h31.32c0,25.16-13.54,37-34,37S100.85,67,100.85,46.7Z"/><path class="cls-1" d="M180.48,57.82V10.53H190V57.72c0,11.21,7.68,16.57,16.67,16.57s16.68-5.36,16.68-16.57V10.53h9.49V57.72c0,16.27-12,25.66-26.17,25.66S180.48,74.09,180.48,57.82Z"/><path class="cls-1" d="M242.12,46.7c0-20.41,15.87-36.88,36.28-36.88a35.44,35.44,0,0,1,24.15,9.4L296,25.38a26.74,26.74,0,0,0-17.58-6.77c-15.16,0-26.78,12.73-26.78,28.19s11.72,28.1,26.78,28.1c12.43,0,21.93-7.08,23.34-18.29a9.27,9.27,0,0,0,.2-1.82H281.13V46.5h31.32c0,25.16-13.54,37-33.95,37C257.89,83.49,242.12,67,242.12,46.7Z"/><path class="cls-1" d="M319.53,77.22a6.47,6.47,0,0,1,6.57-6.47,6.59,6.59,0,0,1,6.77,6.47,6.49,6.49,0,0,1-6.77,6.27A6.37,6.37,0,0,1,319.53,77.22Z"/><path class="cls-1" d="M339.74,46.7A36.53,36.53,0,0,1,376.22,9.92a34.8,34.8,0,0,1,27,12.23L396.33,28a26.41,26.41,0,0,0-20.11-9.3c-15.16,0-27,12.63-27,28.09s11.92,28.1,27,28.1a26.41,26.41,0,0,0,20.11-9.3l6.87,5.86a35.12,35.12,0,0,1-27,12.23A36.84,36.84,0,0,1,339.74,46.7Z"/><path class="cls-1" d="M460.9,18.71l-38.4,55h38.4v8.79h-50V74.39l38.2-55H412.29V10.53H461v8.18Z"/><path class="cls-2" d="M62.05,36.09h0a5.36,5.36,0,0,1,10.71,0v-25h0v-.3A10.4,10.4,0,0,0,62.35.42H51.94A10.72,10.72,0,0,0,41.23,11.13V53c0,1.92,0,5.35-.81,6.87a5,5,0,0,1-8.08-.1,9,9,0,0,1-.71-4c.1,3.13.5,6.67,2.12,9.49a15,15,0,0,0,7.88,6.37,16.24,16.24,0,0,0,8.09-6.47c2-3.63,2.22-8,2.22-12.22V15.07a4.05,4.05,0,0,1,4-4H57.9a4,4,0,0,1,4,4l.11,21Z"/><path class="cls-3" d="M66.19,74.29a25.69,25.69,0,0,1-19.4,8.18,29.37,29.37,0,0,1-6.87-.8c-1.12.1-2.33.2-3.54.2-9.7,0-15.77-4.35-19.2-8.09C12.83,69,10.71,63.17,10.71,55.9V36.19h0a5.38,5.38,0,0,0-5.35-5.35A5.39,5.39,0,0,0,0,36.19V55.9c0,10,3.13,18.39,9.2,25.16h0A35.57,35.57,0,0,0,35.87,92.58h.61c13.34-.1,21.93-6.27,26.68-11.52h0a35.61,35.61,0,0,0,9-20.51A22.34,22.34,0,0,1,66.19,74.29Z"/><path class="cls-4" d="M46.79,72.67h0a14.52,14.52,0,0,1-5.16-.91h0a15.44,15.44,0,0,1-7.88-6.36c-1.62-2.83-2-6.37-2.12-9.5v-45A10.4,10.4,0,0,0,21.22.52H10.81A10.61,10.61,0,0,0,.2,11.13v25a5.39,5.39,0,0,1,5.36-5.35,5.38,5.38,0,0,1,5.35,5.35V15.48a4.27,4.27,0,0,1,4.25-4.25h1.72a4.05,4.05,0,0,1,4,4V56.2c0,5.56,1.11,12.23,6.47,18.09a25.1,25.1,0,0,0,12.53,7.38,28.73,28.73,0,0,0,6.87.8,5,5,0,0,0,5-5A4.87,4.87,0,0,0,46.79,72.67Z"/><path class="cls-5" d="M72.66,36.09a5.36,5.36,0,0,0-10.71,0h0V53.27c0,3.74-.11,8.39-2.23,12a15.39,15.39,0,0,1-13,7.27h0a5,5,0,0,1,0,9.9c9.5,0,15.76-4.14,19.4-8.18,5.35-5.86,6.47-12.53,6.47-18.09V36.09Z"/></svg>