<svg xmlns="http://www.w3.org/2000/svg" width="200" height="200"><defs transform="translate(-67.702 -127.296)"><path id="a" d="M71.94 129.27h192v192h-192z"/></defs><g transform="translate(-67.702 -127.296)"><path d="M206.33 219.27l-33.54-58h-44.85l37.02 64-37.02 64h44.85l33.54-58c2.15-3.71 2.15-8.29 0-12z" fill="none"/><path fill="#ffc107" d="M176.46 245.15l-25.52 44.12h21.85l14.59-25.23-.29-.5z"/><path d="M206.33 219.27l-33.54-58h-44.85l37.02 64-37.02 64h44.85l33.54-58c2.15-3.71 2.15-8.29 0-12z" fill="none"/><path fill="#0f9d58" d="M150.94 289.27h-23l37.02-64 11.5 19.88z"/><path d="M206.33 219.27l-33.54-58h-44.85l37.02 64-37.02 64h44.85l33.54-58c2.15-3.71 2.15-8.29 0-12z" fill="none"/><path opacity=".2" fill="#bf360c" d="M187.38 264.04l-.29-.5-14.3 24.73h-21.27l-.58 1h21.85z"/><path d="M206.33 219.27l-33.54-58h-44.85l37.02 64-37.02 64h44.85l33.54-58c2.15-3.71 2.15-8.29 0-12z" fill="none"/><path opacity=".2" fill="#263238" d="M150.94 289.27l.58-1h-23l-.58 1z"/><path d="M206.33 219.27l-33.54-58h-44.85l37.02 64-37.02 64h44.85l33.54-58c2.15-3.71 2.15-8.29 0-12z" fill="none"/><path opacity=".2" fill="#fff" d="M165.25 225.77l-.29-.5-37.02 64h.58z"/><path d="M206.33 219.27l-33.54-58h-44.85l37.02 64-37.02 64h44.85l33.54-58c2.15-3.71 2.15-8.29 0-12z" fill="none"/><radialGradient id="b" cx="187.217" cy="186.356" r="44.264" gradientTransform="matrix(1 0 0 -1 30.223 575.27)" gradientUnits="userSpaceOnUse"><stop offset="0" stop-color="#bf360c" stop-opacity=".2"/><stop offset="1" stop-color="#bf360c" stop-opacity=".02"/></radialGradient><path fill="url(#b)" d="M176.46 245.15l-2.68 4.63 13.6 14.26z"/><path d="M206.33 219.27l-33.54-58h-44.85l37.02 64-37.02 64h44.85l33.54-58c2.15-3.71 2.15-8.29 0-12z" fill="none"/><radialGradient id="c" cx="187.091" cy="186.076" r="44.623" gradientTransform="matrix(1 0 0 -1 30.223 575.27)" gradientUnits="userSpaceOnUse"><stop offset="0" stop-color="#263238" stop-opacity=".2"/><stop offset="1" stop-color="#263238" stop-opacity=".02"/></radialGradient><path fill="url(#c)" d="M164.96 225.27l-5.49 9.5 14.31 15.01 2.68-4.63z"/><path d="M206.33 219.27l-33.54-58h-44.85l37.02 64-37.02 64h44.85l33.54-58c2.15-3.71 2.15-8.29 0-12z" fill="none"/><path fill="#4285f4" d="M127.94 161.27l59.44 102.77 11.49-19.87.01-.02-47.94-82.88z"/><path d="M206.33 219.27l-33.54-58h-44.85l37.02 64-37.02 64h44.85l33.54-58c2.15-3.71 2.15-8.29 0-12z" fill="none"/><path d="M206.33 231.27c2.15-3.71 2.15-8.29 0-12l-33.54-58h-21.85l47.94 82.88 7.45-12.88z" fill="#db4437"/><path d="M206.33 219.27l-33.54-58h-44.85l37.02 64-37.02 64h44.85l33.54-58c2.15-3.71 2.15-8.29 0-12z" fill="none"/><path opacity=".2" fill="#1a237e" d="M198.59 243.66l-11.21 19.38-58.86-101.77h-.58l59.44 102.77 11.49-19.87.01-.02z"/><path d="M206.33 219.27l-33.54-58h-44.85l37.02 64-37.02 64h44.85l33.54-58c2.15-3.71 2.15-8.29 0-12z" fill="none"/><path d="M172.79 162.27l33.54 58c.99 1.71 1.5 3.6 1.58 5.5.09-2.24-.42-4.5-1.58-6.5l-33.54-58h-44.85l.58 1h44.27z" opacity=".2" fill="#fff"/><path d="M206.33 219.27l-33.54-58h-44.85l37.02 64-37.02 64h44.85l33.54-58c2.15-3.71 2.15-8.29 0-12z" fill="none"/><path d="M198.88 244.15l7.45-12.88c1.16-2 1.67-4.26 1.58-6.5-.08 1.9-.59 3.79-1.58 5.5l-7.74 13.39.29.49z" opacity=".2" fill="#3e2723"/><path d="M206.33 219.27l-33.54-58h-44.85l37.02 64-37.02 64h44.85l33.54-58c2.15-3.71 2.15-8.29 0-12z" fill="none"/><radialGradient id="d" cx="126.94" cy="287.73" r="134.35" gradientTransform="matrix(1 0 0 -1 30.223 575.27)" gradientUnits="userSpaceOnUse"><stop offset="0" stop-color="#fff" stop-opacity=".1"/><stop offset="1" stop-color="#fff" stop-opacity="0"/></radialGradient><path d="M206.33 219.27l-33.54-58h-44.85l37.02 64-37.02 64h44.85l33.54-58c2.15-3.71 2.15-8.29 0-12z" fill="url(#d)"/></g></svg>