<svg xmlns="http://www.w3.org/2000/svg" width="200" height="200"><path d="M78.617 140.94l.013.017c4.767 0 9.529-1.833 13.18-5.485l16.808 16.787c16.558-16.562 16.558-43.407 0-59.971l-16.803 16.798h-.006c7.266 7.283 7.293 19.093 0 26.386-3.675 3.664-8.377 5.454-13.192 5.468" fill="#dc4a3d"/><path d="M151.817 49.124c-16.558-16.556-43.407-16.556-59.984 0l16.8 16.816c7.308-7.295 19.09-7.295 26.392-.014 3.665 3.675 5.46 8.374 5.462 13.191h23.757c0-10.808-4.157-21.748-12.427-29.993" fill="#ffc311"/><path d="M48.66 152.292c16.568 16.564 43.39 16.554 59.958-.033l-16.804-16.787c-7.291 7.287-19.076 7.288-26.363.03a19.064 19.064 0 0 1-5.542-13.368l-23.773-.11c-.02 10.802 4.266 22.01 12.524 30.268" fill="#4486f4"/><path d="M140.487 79.117c-.027 4.843-1.746 9.68-5.427 13.346-7.34 7.252-19.132 7.194-26.38-.116-16.51-16.624-43.343-16.738-59.99-.253a42.404 42.404 0 0 0-12.554 29.93l23.773.11c.014-4.808 1.826-9.52 5.52-13.173 7.323-7.254 19.117-7.202 26.377.124l.004-.027-.004.027c16.508 16.614 43.334 16.734 59.965.246 8.317-8.203 12.428-19.39 12.473-30.214z" fill="#16a05d"/><path d="M108.632 92.307h.007c-7.273-7.294-7.27-19.093-.007-26.368l-16.8-16.816c-8.484 8.493-12.583 19.684-12.374 30.815 10.587.195 21.103 4.295 29.174 12.37" fill="#dc493c"/></svg>