<?xml version="1.0" encoding="UTF-8" standalone="no"?>
<svg
   xmlns:osb="http://www.openswatchbook.org/uri/2009/osb"
   xmlns:dc="http://purl.org/dc/elements/1.1/"
   xmlns:cc="http://creativecommons.org/ns#"
   xmlns:rdf="http://www.w3.org/1999/02/22-rdf-syntax-ns#"
   xmlns:svg="http://www.w3.org/2000/svg"
   xmlns="http://www.w3.org/2000/svg"
   width="auto"
   height="14mm"
   viewBox="0 0 240.94475 70.866105"
   id="svg2"
   version="1.1">
  <defs
     id="defs4">
    <linearGradient
       id="linearGradient6265"
       osb:paint="solid">
      <stop
         style="stop-color:#607d8b;stop-opacity:1;"
         offset="0"
         id="stop6267" />
    </linearGradient>
    <linearGradient
       id="linearGradient6237"
       osb:paint="solid"
       gradientTransform="translate(-6722.2522,-1156.5117)">
      <stop
         style="stop-color:#9ccc65;stop-opacity:1;"
         offset="0"
         id="stop6239" />
    </linearGradient>
    <linearGradient
       id="linearGradient6231"
       osb:paint="solid"
       gradientTransform="translate(-7064.9404,-875.28904)">
      <stop
         style="stop-color:#7cb342;stop-opacity:1;"
         offset="0"
         id="stop6233" />
    </linearGradient>
    <linearGradient
       id="linearGradient6225"
       osb:paint="solid">
      <stop
         style="stop-color:#039be5;stop-opacity:1;"
         offset="0"
         id="stop6227" />
    </linearGradient>
    <linearGradient
       id="linearGradient6219"
       osb:paint="solid">
      <stop
         style="stop-color:#29b6f6;stop-opacity:1;"
         offset="0"
         id="stop6221" />
    </linearGradient>
    <linearGradient
       id="linearGradient6213"
       osb:paint="solid">
      <stop
         style="stop-color:#fdd835;stop-opacity:1;"
         offset="0"
         id="stop6215" />
    </linearGradient>
    <linearGradient
       id="linearGradient6207"
       osb:paint="solid">
      <stop
         style="stop-color:#ffc400;stop-opacity:1;"
         offset="0"
         id="stop6209" />
    </linearGradient>
    <linearGradient
       id="linearGradient6201"
       osb:paint="solid">
      <stop
         style="stop-color:#ef5350;stop-opacity:1;"
         offset="0"
         id="stop6203" />
    </linearGradient>
    <linearGradient
       id="linearGradient6195"
       osb:paint="solid">
      <stop
         style="stop-color:#e53935;stop-opacity:1;"
         offset="0"
         id="stop6197" />
    </linearGradient>
  </defs>
  <metadata
     id="metadata7">
    <rdf:RDF>
      <cc:Work
         rdf:about="">
        <dc:format>image/svg+xml</dc:format>
        <dc:type
           rdf:resource="http://purl.org/dc/dcmitype/StillImage" />
        <dc:title></dc:title>
      </cc:Work>
    </rdf:RDF>
  </metadata>
  <g
     id="layer1"
     transform="translate(0,-981.49644)">
    <g
       id="g5292"
       transform="translate(-327.22736,178.67443)">
      <g
         id="g4684-5-6-0"
         transform="translate(311.856,784.80176)">
        <path
           id="path4636-7-5-2"
           transform="translate(-311.856,-441.10097)"
           d="m 514.29102,512.54492 c 0.60286,2.03417 1.56456,3.83167 2.98242,5.32617 2.46667,2.6 5.66628,3.90039 9.59961,3.90039 3.23333,0 5.9,-0.80039 8,-2.40039 1.49024,-1.11768 2.65549,-2.5112 3.51172,-4.16601 l -3.95704,-2.28516 -0.004,0 c -1.13333,3.4 -3.65078,5.10156 -7.55078,5.10156 -2.6,0 -4.69883,-0.90117 -6.29883,-2.70117 -0.65909,-0.77128 -1.10257,-1.74453 -1.48438,-2.77539 l -4.79882,0 z"
           style="font-style:normal;font-variant:normal;font-weight:normal;font-stretch:normal;font-size:50px;line-height:125%;font-family:Poppins;-inkscape-font-specification:Poppins;letter-spacing:0px;word-spacing:0px;fill:#607d8b;fill-opacity:1;stroke:none;stroke-width:1px;stroke-linecap:butt;stroke-linejoin:miter;stroke-opacity:1" />
        <path
           style="font-style:normal;font-variant:normal;font-weight:normal;font-stretch:normal;font-size:50px;line-height:125%;font-family:Poppins;-inkscape-font-specification:Poppins;letter-spacing:0px;word-spacing:0px;fill:url(#linearGradient6231);fill-opacity:1;stroke:none;stroke-width:1px;stroke-linecap:butt;stroke-linejoin:miter;stroke-opacity:1"
           d="m 280.00781,503.625 -5.01172,0 c -0.59569,1.69425 -0.90039,3.5849 -0.90039,5.68164 0,1.79997 0.27086,3.41914 0.7168,4.92383 l 4.79883,0 c -0.52576,-1.4195 -0.86719,-3.01213 -0.86719,-4.92383 0,-2.30561 0.51414,-4.10962 1.26367,-5.68164 z"
           id="path4634-6-2-8"
           transform="translate(-72.377708,-442.78685)" />
        <g
           id="g4694-7-4-9">
          <path
             style="font-style:normal;font-variant:normal;font-weight:normal;font-stretch:normal;font-size:50px;line-height:125%;font-family:Poppins;-inkscape-font-specification:Poppins;letter-spacing:0px;word-spacing:0px;fill:#607d8b;fill-opacity:1;stroke:none;stroke-width:1px;stroke-linecap:butt;stroke-linejoin:miter;stroke-opacity:1"
             d="m 307.67773,516.125 -5.15039,0 -3.35351,5.07617 0,3.69922 18.40039,0 0,-3.69922 -13.25,0 3.35351,-5.07617 z"
             id="path4643-6-9-8"
             transform="translate(-67.326946,-444.68088)" />
          <path
             style="font-style:normal;font-variant:normal;font-weight:normal;font-stretch:normal;font-size:50px;line-height:125%;font-family:Poppins;-inkscape-font-specification:Poppins;letter-spacing:0px;word-spacing:0px;fill:url(#linearGradient6231);fill-opacity:1;stroke:none;stroke-width:1px;stroke-linecap:butt;stroke-linejoin:miter;stroke-opacity:1"
             d="m 314.6875,505.51953 -5.15039,0 -7.00977,10.60547 5.15039,0 7.00977,-10.60547 z"
             id="path4641-0-0-2"
             transform="translate(-67.326946,-444.68088)" />
          <path
             style="font-style:normal;font-variant:normal;font-weight:normal;font-stretch:normal;font-size:50px;line-height:125%;font-family:Poppins;-inkscape-font-specification:Poppins;letter-spacing:0px;word-spacing:0px;fill:#607d8b;fill-opacity:1;stroke:none;stroke-width:1px;stroke-linecap:butt;stroke-linejoin:miter;stroke-opacity:1"
             d="m 299.17383,497.45117 0,3.69922 13.25,0 -2.88672,4.36914 5.15039,0 2.88672,-4.36914 0,-3.69922 -18.40039,0 z"
             id="path4625-4-1-0"
             transform="translate(-67.326946,-444.68088)" />
          <path
             id="path4623-9-8-5"
             transform="translate(-311.856,-441.10097)"
             d="m 526.87305,493.41992 c -3.93333,0 -7.13294,1.30039 -9.59961,3.90039 -1.25448,1.3223 -2.18234,2.86576 -2.79883,4.61914 l 5.01172,0 c 0.33411,-0.70073 0.60486,-1.46456 1.08789,-2.01953 1.6,-1.83333 3.69883,-2.75 6.29883,-2.75 1.9,0 3.50078,0.45156 4.80078,1.35156 1.15033,0.79639 1.9586,1.90494 2.50586,3.25196 l 3.95703,-2.28516 c -0.81321,-1.52087 -1.87202,-2.78853 -3.21289,-3.76758 -2.06666,-1.53333 -4.75078,-2.30078 -8.05078,-2.30078 z"
             style="font-style:normal;font-variant:normal;font-weight:normal;font-stretch:normal;font-size:50px;line-height:125%;font-family:Poppins;-inkscape-font-specification:Poppins;letter-spacing:0px;word-spacing:0px;fill:#607d8b;fill-opacity:1;stroke:none;stroke-width:1px;stroke-linecap:butt;stroke-linejoin:miter;stroke-opacity:1" />
        </g>
      </g>
      <path
         style="font-style:normal;font-weight:normal;font-size:40px;line-height:125%;font-family:sans-serif;letter-spacing:0px;word-spacing:0px;fill:#e53935;fill-opacity:1;stroke:none;stroke-width:1px;stroke-linecap:butt;stroke-linejoin:miter;stroke-opacity:1"
         d="m 395.86367,812.54971 0,32.25 c 0,6.65 2,11.74883 6,15.29883 4,3.55 8.97383,5.32617 14.92383,5.32617 5.95,0 11.00039,-1.77617 15.15039,-5.32617 4.15,-3.6 6.22461,-8.69883 6.22461,-15.29883 l 0,-32.25 -10.5,0 0,32.25 c 0,3.6 -0.92539,6.32383 -2.77539,8.17383 -1.85,1.85 -4.475,2.77539 -7.875,2.77539 -3.4,0 -6.025,-0.92539 -7.875,-2.77539 -1.8,-1.85 -2.69922,-4.57383 -2.69922,-8.17383 l 0,-32.25 z"
         id="text4136-0-1-9-0-6" />
      <path
         style="font-style:normal;font-weight:normal;font-size:40px;line-height:125%;font-family:sans-serif;letter-spacing:0px;word-spacing:0px;fill:#ffc401;fill-opacity:1;stroke:none;stroke-width:1px;stroke-linecap:butt;stroke-linejoin:miter;stroke-opacity:1"
         d="m 473.01607,811.87828 c -7.5,0 -13.85078,2.52422 -19.05078,7.57422 -5.15,5.05 -7.72461,11.45117 -7.72461,19.20117 0,7.75 2.57461,14.14922 7.72461,19.19922 5.15,5.05 11.275,7.57422 18.375,7.57422 7.15,0 13.07539,-2.125 17.77539,-6.375 4.7,-4.3 7.50039,-9.3 8.40039,-15 l 0,-8.02344 -28.72656,0 0,8.02344 17.40039,0 c -0.6,3.6 -2.15039,6.475 -4.65039,8.625 -2.45,2.1 -5.84922,3.15039 -10.19922,3.15039 -4.3,0 -7.94922,-1.55039 -10.94922,-4.65039 -2.95,-3.15 -4.42578,-7.29922 -4.42578,-12.44922 0,-5.2 1.47578,-9.34922 4.42578,-12.44922 3,-3.15 6.875,-4.72656 11.625,-4.72656 5.64417,0 9.64121,2.2962 11.99219,6.88672 l 8.70898,-7.17774 c -1.55518,-1.95046 -3.40198,-3.63159 -5.55273,-5.0332 -4.4,-2.9 -9.44844,-4.34961 -15.14844,-4.34961 z"
         id="text4136-0-1-9-0-5" />
      <path
         style="font-style:normal;font-weight:normal;font-size:40px;line-height:125%;font-family:sans-serif;letter-spacing:0px;word-spacing:0px;fill:#607d8b;fill-opacity:1;stroke:none;stroke-width:1px;stroke-linecap:butt;stroke-linejoin:miter;stroke-opacity:1"
         d="m 506.87412,859.11919 c -0.8,0 -1.48216,0.28294 -2.04883,0.84961 -0.56666,0.56667 -0.85156,1.26628 -0.85156,2.09961 0,0.8 0.2849,1.48411 0.85156,2.05078 0.56667,0.56667 1.24883,0.84961 2.04883,0.84961 0.8,0 1.48412,-0.28294 2.05078,-0.84961 0.56667,-0.56667 0.84961,-1.25078 0.84961,-2.05078 0,-0.83333 -0.28294,-1.53294 -0.84961,-2.09961 -0.56666,-0.56667 -1.25078,-0.84961 -2.05078,-0.84961 z"
         id="text4136-0-1-9-0-51" />
      <path
         style="font-style:normal;font-weight:normal;font-size:40px;line-height:125%;font-family:sans-serif;letter-spacing:0px;word-spacing:0px;fill:#039be5;fill-opacity:1;stroke:none;stroke-width:1px;stroke-linecap:butt;stroke-linejoin:miter;stroke-opacity:1"
         d="m 362.14139,811.81338 c -7.5,0 -13.85078,2.52422 -19.05078,7.57422 -5.15,5.05 -7.72461,11.45117 -7.72461,19.20117 0,7.75 2.57461,14.14922 7.72461,19.19922 5.15,5.05 11.275,7.57422 18.375,7.57422 7.15,0 13.07539,-2.125 17.77539,-6.375 4.7,-4.3 7.50039,-9.3 8.40039,-15 l 0,-8.02344 -28.72657,0 0,8.02344 17.4004,0 c -0.60001,3.6 -2.1504,6.475 -4.6504,8.625 -2.45,2.1 -5.84921,3.15039 -10.19921,3.15039 -4.3,0 -7.94922,-1.55039 -10.94922,-4.65039 -2.95,-3.15 -4.42578,-7.29922 -4.42578,-12.44922 0,-5.2 1.47578,-9.34922 4.42578,-12.44922 3,-3.15 6.875,-4.72656 11.625,-4.72656 5.56333,0 9.52292,2.23535 11.88672,6.69531 l 8.67382,-7.15039 c -1.52683,-1.87871 -3.32358,-3.50808 -5.41211,-4.86914 -4.4,-2.9 -9.44843,-4.34961 -15.14843,-4.34961 z"
         id="text4136-0-1-9-0-0" />
    </g>
  </g>
</svg>
