<?xml version="1.0" encoding="UTF-8" standalone="no"?>
<!-- Generator: Adobe Illustrator 19.1.0, SVG Export Plug-In . SVG Version: 6.00 Build 0)  -->

<svg
   xmlns:dc="http://purl.org/dc/elements/1.1/"
   xmlns:cc="http://creativecommons.org/ns#"
   xmlns:rdf="http://www.w3.org/1999/02/22-rdf-syntax-ns#"
   xmlns:svg="http://www.w3.org/2000/svg"
   xmlns="http://www.w3.org/2000/svg"
   xmlns:sodipodi="http://sodipodi.sourceforge.net/DTD/sodipodi-0.dtd"
   xmlns:inkscape="http://www.inkscape.org/namespaces/inkscape"
   version="1.1"
   id="Layer_4"
   x="0px"
   y="0px"
   width="200"
   height="200"
   viewBox="0 0 200 200"
   enable-background="new 0 0 691.42 448"
   xml:space="preserve"
   inkscape:version="0.91 r13725"
   sodipodi:docname="GEG.svg"><metadata
     id="metadata89"><rdf:RDF><cc:Work
         rdf:about=""><dc:format>image/svg+xml</dc:format><dc:type
           rdf:resource="http://purl.org/dc/dcmitype/StillImage" /><dc:title></dc:title></cc:Work></rdf:RDF></metadata><defs
     id="defs87"><clipPath
       clipPathUnits="userSpaceOnUse"
       id="clipPath4949"><path
         d="m 228.306,538.877 -0.003,0 c 3.754,-3.763 3.767,-9.865 0,-13.632 l 0,0 c -1.9,-1.894 -4.328,-2.819 -6.817,-2.827 l 0,0 0.008,-12.267 c 5.584,-0.007 11.217,2.148 15.493,6.42 l 0,0 c 8.555,8.557 8.555,22.427 0,30.984 l 0,0 -8.681,-8.678 z"
         id="path4951"
         inkscape:connector-curvature="0" /></clipPath><clipPath
       clipPathUnits="userSpaceOnUse"
       id="clipPath4957"><path
         d="m 226.458,548.783 40.376,0 0,-19.551 -40.376,0 0,19.551 z"
         id="path4959"
         inkscape:connector-curvature="0" /></clipPath><clipPath
       id="clipPath50"
       clipPathUnits="userSpaceOnUse"><path
         inkscape:connector-curvature="0"
         id="path48"
         d="m 393.352,189.434 -103.957,79.105 49.418,81.684 75.511,-125.844 -16.504,-27.5 -4.468,-7.445" /></clipPath><clipPath
       id="clipPath38"
       clipPathUnits="userSpaceOnUse"><path
         inkscape:connector-curvature="0"
         id="path36"
         d="m 289.395,268.539 -99.856,75.984 76.316,127.293 72.958,-121.593 -49.418,-81.684" /></clipPath><clipPath
       id="clipPath26"
       clipPathUnits="userSpaceOnUse"><path
         inkscape:connector-curvature="0"
         id="path24"
         d="m 397.82,196.879 16.504,27.5 0.008,-0.016 -16.512,-27.484" /></clipPath><clipPath
       clipPathUnits="userSpaceOnUse"
       id="clipPath7744"><path
         d="m 0,1008.832 2139.362,0 L 2139.362,0 0,0 0,1008.832 Z"
         id="path7746"
         inkscape:connector-curvature="0" /></clipPath><clipPath
       clipPathUnits="userSpaceOnUse"
       id="clipPath7718"><path
         d="m 0,1008.832 2139.362,0 L 2139.362,0 0,0 0,1008.832 Z"
         id="path7720"
         inkscape:connector-curvature="0" /></clipPath></defs><sodipodi:namedview
     pagecolor="#ffffff"
     bordercolor="#666666"
     borderopacity="1"
     objecttolerance="10"
     gridtolerance="10"
     guidetolerance="10"
     inkscape:pageopacity="0"
     inkscape:pageshadow="2"
     inkscape:window-width="1920"
     inkscape:window-height="1017"
     id="namedview85"
     showgrid="false"
     inkscape:zoom="2.8284271"
     inkscape:cx="17.977823"
     inkscape:cy="119.1479"
     inkscape:window-x="0"
     inkscape:window-y="30"
     inkscape:window-maximized="1"
     inkscape:current-layer="g5445" /><g
     id="g5445"
     transform="translate(85.329579,0)"><g
       transform="translate(92.294602,4.0389317)"
       id="g8434"><g
         id="g7700"
         transform="matrix(0.61575347,0,0,-0.61575347,-77.932281,163.92213)"
         style="fill:#ffc311;fill-opacity:1"><path
           d="m 0,0 -85.039,29.287 c 0,0 -4.17,1.615 -6.065,3.796 -1.812,2.084 -1.812,6.499 -1.812,6.499 l 0,121.439 c 0,0 -0.004,3.854 3.228,6.073 3.953,2.713 8.615,0.176 8.615,0.176 L 0,129.75 0,0 Z"
           style="fill:#ffc311;fill-opacity:1;fill-rule:nonzero;stroke:none"
           id="path7702"
           inkscape:connector-curvature="0" /></g><g
         id="g7722"
         transform="matrix(0.61575347,0,0,-0.61575347,-77.93228,163.92212)"
         style="fill:#4486f4;fill-opacity:1"><path
           d="m 0,0 c 0,0 -11.279,64.508 -64.375,68 l 0,139.75 c 0,0 58.125,6.708 64.375,-78 L 0,0 Z"
           style="fill:#4486f4;fill-opacity:1;fill-rule:nonzero;stroke:none"
           id="path7724"
           inkscape:connector-curvature="0" /></g><g
         id="g7726"
         transform="matrix(0.61575347,0,0,-0.61575347,-77.93228,163.92212)"
         style="fill:#16a05d;fill-opacity:1"><path
           d="m 0,0 85.04,29.287 c 0,0 4.17,1.615 6.065,3.796 1.812,2.084 1.812,6.499 1.812,6.499 l 0,121.439 c 0,0 0.004,3.854 -3.229,6.073 -3.952,2.713 -8.614,0.176 -8.614,0.176 L 0,129.75 0,0 Z"
           style="fill:#16a05d;fill-opacity:1;fill-rule:nonzero;stroke:none"
           id="path7728"
           inkscape:connector-curvature="0" /></g><g
         transform="matrix(0.61575347,0,0,-0.61575347,-186.56283,617.77695)"
         id="g7740"
         style="fill:#dc4a3d;fill-opacity:1"><g
           id="g7742"
           clip-path="url(#clipPath7744)"
           style="fill:#dc4a3d;fill-opacity:1"><g
             id="g7748"
             transform="translate(176.4189,737.0723)"
             style="fill:#dc4a3d;fill-opacity:1"><path
               d="m 0,0 c 0,0 11.281,64.508 64.375,68 l 0,139.75 c 0,0 -58.125,6.708 -64.375,-78 L 0,0 Z"
               style="fill:#dc4a3d;fill-opacity:1;fill-rule:nonzero;stroke:none"
               id="path7750"
               inkscape:connector-curvature="0" /></g></g></g></g></g></svg>