<?xml version="1.0" encoding="UTF-8" standalone="no"?>
<!-- Created with Inkscape (http://www.inkscape.org/) -->

<svg
        xmlns:dc="http://purl.org/dc/elements/1.1/"
        xmlns:cc="http://creativecommons.org/ns#"
        xmlns:rdf="http://www.w3.org/1999/02/22-rdf-syntax-ns#"
        xmlns:svg="http://www.w3.org/2000/svg"
        xmlns="http://www.w3.org/2000/svg"
        xmlns:sodipodi="http://sodipodi.sourceforge.net/DTD/sodipodi-0.dtd"
        xmlns:inkscape="http://www.inkscape.org/namespaces/inkscape"
        width="39.35126mm"
        height="8.466666mm"
        viewBox="0 0 139.4336 29.99999"
        id="svg2"
        version="1.1"
        inkscape:version="0.91 r13725"
        sodipodi:docname="logo-gug.svg"
        inkscape:export-filename="/mnt/D0F8DEEEF8DED238/syncthing/projects/web-graphics/gug/web-frontend/src/grafika/logo-gug.png"
        inkscape:export-xdpi="30"
        inkscape:export-ydpi="30">
    <defs
            id="defs4"/>
    <sodipodi:namedview
            id="base"
            pagecolor="#ffffff"
            bordercolor="#666666"
            borderopacity="1.0"
            inkscape:pageopacity="0.0"
            inkscape:pageshadow="2"
            inkscape:zoom="1.979899"
            inkscape:cx="140.6152"
            inkscape:cy="-81.58415"
            inkscape:document-units="px"
            inkscape:current-layer="text4136"
            showgrid="false"
            inkscape:window-width="2560"
            inkscape:window-height="1416"
            inkscape:window-x="1366"
            inkscape:window-y="24"
            inkscape:window-maximized="1"
            fit-margin-top="0"
            fit-margin-left="0"
            fit-margin-right="0"
            fit-margin-bottom="0"/>
    <metadata
            id="metadata7">
        <rdf:RDF>
            <cc:Work
                    rdf:about="">
                <dc:format>image/svg+xml</dc:format>
                <dc:type
                        rdf:resource="http://purl.org/dc/dcmitype/StillImage"/>
                <dc:title></dc:title>
            </cc:Work>
        </rdf:RDF>
    </metadata>
    <g
            inkscape:label="Vrstva 1"
            inkscape:groupmode="layer"
            id="layer1"
            transform="translate(-214.1633,-186.7176)">
        <g
                style="font-style:normal;font-weight:normal;font-size:40px;line-height:125%;font-family:sans-serif;letter-spacing:0px;word-spacing:0px;fill:#000000;fill-opacity:1;stroke:none;stroke-width:1px;stroke-linecap:butt;stroke-linejoin:miter;stroke-opacity:1"
                id="text4136">
            <path
                    d="m 231.2531,201.3075 11.3281,0 q 0,0.2929 0.02,0.8203 0.059,1.3867 0.059,1.875 0,6.0351 -3.457,9.375 -3.457,3.3398 -9.7461,3.3398 -3.5156,0 -6.2695,-1.0351 -2.7539,-1.0352 -4.8242,-3.125 -2.0313,-2.0703 -3.125,-4.8633 -1.0742,-2.793 -1.0742,-5.9766 0,-3.2422 1.0937,-5.9765 1.1133,-2.7344 3.2813,-4.8243 2.0898,-2.0507 4.9023,-3.125 2.8125,-1.0742 6.0156,-1.0742 3.3789,0 6.0352,1.2305 2.6758,1.2305 4.7656,3.7695 l -3.3984,2.5586 q -1.4453,-1.6797 -3.2618,-2.5 -1.8164,-0.8203 -4.0625,-0.8203 -4.6484,0 -7.5976,2.9883 -2.9297,2.9687 -2.9297,7.7344 0,4.8437 2.9297,7.8711 2.9492,3.0078 7.6367,3.0078 3.9844,0 6.2695,-1.8555 2.2852,-1.8555 2.2852,-5.0586 l 0,-0.4102 -6.875,0 0,-3.9257 z"
                    style="font-style:normal;font-variant:normal;font-weight:normal;font-stretch:normal;font-family:'Futura Md BT';-inkscape-font-specification:'Futura Md BT';fill:#4483ff;fill-opacity:0.9411765"
                    id="path4265"/>
            <path
                    d="m 247.4054,187.3622 4.5899,0 0,17.3632 q 0,3.8672 1.7773,5.8203 1.7969,1.9336 5.3516,1.9336 3.5351,0 5.3125,-1.9336 1.7969,-1.9531 1.7969,-5.8203 l 0,-17.3632 4.6484,0 0,17.7929 q 0,5.8008 -2.9297,8.6914 -2.9297,2.8711 -8.8281,2.8711 -5.8984,0 -8.8086,-2.8711 -2.9102,-2.8711 -2.9102,-8.6914 l 0,-17.7929 z"
                    style="font-style:normal;font-variant:normal;font-weight:normal;font-stretch:normal;font-family:'Futura Md BT';-inkscape-font-specification:'Futura Md BT';fill:#e84232;fill-opacity:1"
                    id="path4267"/>
            <path
                    d="m 293.1281,201.3075 11.3281,0 q 0,0.2929 0.02,0.8203 0.058,1.3867 0.058,1.875 0,6.0351 -3.457,9.375 -3.457,3.3398 -9.7461,3.3398 -3.5156,0 -6.2695,-1.0351 -2.7539,-1.0352 -4.8242,-3.125 -2.0313,-2.0703 -3.125,-4.8633 -1.0742,-2.793 -1.0742,-5.9766 0,-3.2422 1.0937,-5.9765 1.1133,-2.7344 3.2813,-4.8243 2.0898,-2.0507 4.9023,-3.125 2.8125,-1.0742 6.0156,-1.0742 3.3789,0 6.0352,1.2305 2.6758,1.2305 4.7656,3.7695 l -3.3984,2.5586 q -1.4453,-1.6797 -3.2618,-2.5 -1.8164,-0.8203 -4.0625,-0.8203 -4.6484,0 -7.5976,2.9883 -2.9297,2.9687 -2.9297,7.7344 0,4.8437 2.9297,7.8711 2.9492,3.0078 7.6367,3.0078 3.9844,0 6.2695,-1.8555 2.2852,-1.8555 2.2852,-5.0586 l 0,-0.4102 -6.875,0 0,-3.9257 z"
                    style="font-style:normal;font-variant:normal;font-weight:normal;font-stretch:normal;font-family:'Futura Md BT';-inkscape-font-specification:'Futura Md BT';fill:#f8be03;fill-opacity:1"
                    id="path4269"/>
            <path
                    d="m 309.5929,213.7879 q 0,-1.0742 0.7422,-1.8359 0.7422,-0.7617 1.8164,-0.7617 1.0743,0 1.8164,0.7617 0.7422,0.7617 0.7422,1.8359 0,1.0547 -0.7422,1.7969 -0.7421,0.7227 -1.8164,0.7227 -1.0742,0 -1.8164,-0.7227 -0.7422,-0.7422 -0.7422,-1.7969 z"
                    style="font-style:normal;font-variant:normal;font-weight:normal;font-stretch:normal;font-family:'Futura Md BT';-inkscape-font-specification:'Futura Md BT';fill:#75757f;fill-opacity:0.9411765"
                    id="path4271"/>
            <path
                    d="m 334.9836,202.7137 q -0.9766,-1.0742 -2.2852,-1.6406 -1.2891,-0.5664 -2.793,-0.5664 -2.5976,0 -4.1601,1.6797 -1.5625,1.6797 -1.5625,4.4531 0,2.8906 1.5625,4.5508 1.582,1.6406 4.3555,1.6406 1.5429,0 2.7539,-0.5664 1.2109,-0.5859 2.1289,-1.7578 l 0,4.8828 q -1.1719,0.6641 -2.5196,0.9961 -1.3281,0.332 -2.832,0.332 -4.3555,0 -7.1094,-2.7734 -2.7343,-2.7735 -2.7343,-7.1875 0,-4.4727 2.832,-7.207 2.8515,-2.754 7.4414,-2.754 1.4453,0 2.6562,0.293 1.211,0.2735 2.2657,0.8594 l 0,4.7656 z"
                    style="font-style:normal;font-variant:normal;font-weight:normal;font-stretch:normal;font-family:'Futura Md BT';-inkscape-font-specification:'Futura Md BT';fill:#75757f;fill-opacity:0.9411765"
                    id="path4273"/>
            <path
                    d="m 353.5968,215.9559 -17.207,0 10.3125,-14.8047 -9.2773,0 0,-3.7109 16.1718,0 -10.0976,14.8047 10.0976,0 0,3.7109 z"
                    style="font-style:normal;font-variant:normal;font-weight:normal;font-stretch:normal;font-family:'Futura Md BT';-inkscape-font-specification:'Futura Md BT';fill:#75757f;fill-opacity:0.9411765"
                    id="path4275"/>
        </g>
    </g>
</svg>
